0
SECTION
2
HEADER
9
$ACADVER
1
AC1006
0
ENDSEC
0
SECTION
2
TABLES
0
TABLE
2
LAYER
70
1
0
LAYER
70
0
62
1
6
CONTINUOUS
2
L1D0
0
ENDTAB
0
ENDSEC
0
SECTION
2
BLOCKS
0
BLOCK
2
TOP$1
70
0
10
0
20
0
0
POLYLINE
8
L1D0
70
1
40
0
41
0
66
1
0
VERTEX
8
L1D0
10
13.2
20
12.5
0
VERTEX
8
L1D0
10
13.2
20
13
0
VERTEX
8
L1D0
10
14.2
20
13
0
VERTEX
8
L1D0
10
14.2
20
12.5
0
SEQEND
0
POLYLINE
8
L1D0
70
1
40
0
41
0
66
1
0
VERTEX
8
L1D0
10
14.3
20
12.5
0
VERTEX
8
L1D0
10
14.3
20
13
0
VERTEX
8
L1D0
10
15
20
13
0
VERTEX
8
L1D0
10
15
20
12.5
0
SEQEND
0
POLYLINE
8
L1D0
70
1
40
0
41
0
66
1
0
VERTEX
8
L1D0
10
12.1
20
13.2
0
VERTEX
8
L1D0
10
12.1
20
15.2
0
VERTEX
8
L1D0
10
13.1
20
15.2
0
VERTEX
8
L1D0
10
13.1
20
13.2
0
SEQEND
0
POLYLINE
8
L1D0
70
1
40
0
41
0
66
1
0
VERTEX
8
L1D0
10
13.2
20
13.2
0
VERTEX
8
L1D0
10
13.2
20
15.2
0
VERTEX
8
L1D0
10
14.2
20
15.2
0
VERTEX
8
L1D0
10
14.2
20
13.2
0
SEQEND
0
POLYLINE
8
L1D0
70
1
40
0
41
0
66
1
0
VERTEX
8
L1D0
10
14.3
20
13.2
0
VERTEX
8
L1D0
10
14.3
20
15.2
0
VERTEX
8
L1D0
10
15
20
15.2
0
VERTEX
8
L1D0
10
15
20
13.2
0
SEQEND
0
POLYLINE
8
L1D0
70
1
40
0
41
0
66
1
0
VERTEX
8
L1D0
10
12.1
20
15.4
0
VERTEX
8
L1D0
10
12.1
20
15.5
0
VERTEX
8
L1D0
10
13.1
20
15.5
0
VERTEX
8
L1D0
10
13.1
20
15.4
0
SEQEND
0
POLYLINE
8
L1D0
70
1
40
0
41
0
66
1
0
VERTEX
8
L1D0
10
13.2
20
15.4
0
VERTEX
8
L1D0
10
13.2
20
15.5
0
VERTEX
8
L1D0
10
14.2
20
15.5
0
VERTEX
8
L1D0
10
14.2
20
15.4
0
SEQEND
0
POLYLINE
8
L1D0
70
1
40
0
41
0
66
1
0
VERTEX
8
L1D0
10
14.3
20
15.4
0
VERTEX
8
L1D0
10
14.3
20
15.5
0
VERTEX
8
L1D0
10
15
20
15.5
0
VERTEX
8
L1D0
10
15
20
15.4
0
SEQEND
0
POLYLINE
8
L1D0
70
1
40
0
41
0
66
1
0
VERTEX
8
L1D0
10
12.1
20
12.5
0
VERTEX
8
L1D0
10
12.1
20
13
0
VERTEX
8
L1D0
10
13.1
20
13
0
VERTEX
8
L1D0
10
13.1
20
12.5
0
SEQEND
0
ENDBLK
0
BLOCK
2
TOP
70
0
10
0
20
0
0
POLYLINE
8
L1D0
70
1
40
0
41
0
66
1
0
VERTEX
8
L1D0
10
2.2
20
2.5
0
VERTEX
8
L1D0
10
2.2
20
4.2
0
VERTEX
8
L1D0
10
3.2
20
4.2
0
VERTEX
8
L1D0
10
3.2
20
2.5
0
SEQEND
0
POLYLINE
8
L1D0
70
1
40
0
41
0
66
1
0
VERTEX
8
L1D0
10
3.3
20
2.5
0
VERTEX
8
L1D0
10
3.3
20
4.2
0
VERTEX
8
L1D0
10
4.3
20
4.2
0
VERTEX
8
L1D0
10
4.3
20
2.5
0
SEQEND
0
POLYLINE
8
L1D0
70
1
40
0
41
0
66
1
0
VERTEX
8
L1D0
10
4.4
20
2.5
0
VERTEX
8
L1D0
10
4.4
20
4.2
0
VERTEX
8
L1D0
10
5.4
20
4.2
0
VERTEX
8
L1D0
10
5.4
20
2.5
0
SEQEND
0
POLYLINE
8
L1D0
70
1
40
0
41
0
66
1
0
VERTEX
8
L1D0
10
5.5
20
2.5
0
VERTEX
8
L1D0
10
5.5
20
4.2
0
VERTEX
8
L1D0
10
6.5
20
4.2
0
VERTEX
8
L1D0
10
6.5
20
2.5
0
SEQEND
0
POLYLINE
8
L1D0
70
1
40
0
41
0
66
1
0
VERTEX
8
L1D0
10
6.6
20
2.5
0
VERTEX
8
L1D0
10
6.6
20
4.2
0
VERTEX
8
L1D0
10
7
20
4.2
0
VERTEX
8
L1D0
10
7
20
2.5
0
SEQEND
0
POLYLINE
8
L1D0
70
1
40
0
41
0
66
1
0
VERTEX
8
L1D0
10
2
20
4.4
0
VERTEX
8
L1D0
10
2
20
6.4
0
VERTEX
8
L1D0
10
2.1
20
6.4
0
VERTEX
8
L1D0
10
2.1
20
4.4
0
SEQEND
0
POLYLINE
8
L1D0
70
1
40
0
41
0
66
1
0
VERTEX
8
L1D0
10
2.2
20
4.4
0
VERTEX
8
L1D0
10
2.2
20
6.4
0
VERTEX
8
L1D0
10
3.2
20
6.4
0
VERTEX
8
L1D0
10
3.2
20
4.4
0
SEQEND
0
POLYLINE
8
L1D0
70
1
40
0
41
0
66
1
0
VERTEX
8
L1D0
10
3.3
20
4.4
0
VERTEX
8
L1D0
10
3.3
20
6.4
0
VERTEX
8
L1D0
10
4.3
20
6.4
0
VERTEX
8
L1D0
10
4.3
20
4.4
0
SEQEND
0
POLYLINE
8
L1D0
70
1
40
0
41
0
66
1
0
VERTEX
8
L1D0
10
4.4
20
4.4
0
VERTEX
8
L1D0
10
4.4
20
6.4
0
VERTEX
8
L1D0
10
5.4
20
6.4
0
VERTEX
8
L1D0
10
5.4
20
4.4
0
SEQEND
0
POLYLINE
8
L1D0
70
1
40
0
41
0
66
1
0
VERTEX
8
L1D0
10
5.5
20
4.4
0
VERTEX
8
L1D0
10
5.5
20
6.4
0
VERTEX
8
L1D0
10
6.5
20
6.4
0
VERTEX
8
L1D0
10
6.5
20
4.4
0
SEQEND
0
POLYLINE
8
L1D0
70
1
40
0
41
0
66
1
0
VERTEX
8
L1D0
10
6.6
20
4.4
0
VERTEX
8
L1D0
10
6.6
20
6.4
0
VERTEX
8
L1D0
10
7
20
6.4
0
VERTEX
8
L1D0
10
7
20
4.4
0
SEQEND
0
POLYLINE
8
L1D0
70
1
40
0
41
0
66
1
0
VERTEX
8
L1D0
10
2
20
6.6
0
VERTEX
8
L1D0
10
2
20
7.5
0
VERTEX
8
L1D0
10
2.1
20
7.5
0
VERTEX
8
L1D0
10
2.1
20
6.6
0
SEQEND
0
POLYLINE
8
L1D0
70
1
40
0
41
0
66
1
0
VERTEX
8
L1D0
10
2.2
20
6.6
0
VERTEX
8
L1D0
10
2.2
20
7.5
0
VERTEX
8
L1D0
10
3.2
20
7.5
0
VERTEX
8
L1D0
10
3.2
20
6.6
0
SEQEND
0
POLYLINE
8
L1D0
70
1
40
0
41
0
66
1
0
VERTEX
8
L1D0
10
3.3
20
6.6
0
VERTEX
8
L1D0
10
3.3
20
7.5
0
VERTEX
8
L1D0
10
4.3
20
7.5
0
VERTEX
8
L1D0
10
4.3
20
6.6
0
SEQEND
0
POLYLINE
8
L1D0
70
1
40
0
41
0
66
1
0
VERTEX
8
L1D0
10
4.4
20
6.6
0
VERTEX
8
L1D0
10
4.4
20
7.5
0
VERTEX
8
L1D0
10
5.4
20
7.5
0
VERTEX
8
L1D0
10
5.4
20
6.6
0
SEQEND
0
POLYLINE
8
L1D0
70
1
40
0
41
0
66
1
0
VERTEX
8
L1D0
10
5.5
20
6.6
0
VERTEX
8
L1D0
10
5.5
20
7.5
0
VERTEX
8
L1D0
10
6.5
20
7.5
0
VERTEX
8
L1D0
10
6.5
20
6.6
0
SEQEND
0
POLYLINE
8
L1D0
70
1
40
0
41
0
66
1
0
VERTEX
8
L1D0
10
6.6
20
6.6
0
VERTEX
8
L1D0
10
6.6
20
7.5
0
VERTEX
8
L1D0
10
7
20
7.5
0
VERTEX
8
L1D0
10
7
20
6.6
0
SEQEND
0
POLYLINE
8
L1D0
70
1
40
0
41
0
66
1
0
VERTEX
8
L1D0
10
2
20
2.5
0
VERTEX
8
L1D0
10
2
20
4.2
0
VERTEX
8
L1D0
10
2.1
20
4.2
0
VERTEX
8
L1D0
10
2.1
20
2.5
0
SEQEND
0
ENDBLK
0
ENDSEC
0
SECTION
2
ENTITIES
0
INSERT
8
0
2
TOP
10
0
20
0
41
1
42
1
50
0
0
INSERT
8
0
2
TOP$1
10
0
20
0
41
1
42
1
50
0
0
ENDSEC
0
EOF
