0
SECTION
2
HEADER
9
$ACADVER
1
AC1006
0
ENDSEC
0
SECTION
2
TABLES
0
TABLE
2
LAYER
70
1
0
LAYER
70
0
62
1
6
CONTINUOUS
2
L1D0
0
ENDTAB
0
ENDSEC
0
SECTION
2
BLOCKS
0
ENDSEC
0
SECTION
2
ENTITIES
0
POLYLINE
8
L1D0
70
1
40
0
41
0
66
1
0
VERTEX
8
L1D0
10
7.7
20
0
0
VERTEX
8
L1D0
10
7.7
20
2
0
VERTEX
8
L1D0
10
8.7
20
2
0
VERTEX
8
L1D0
10
8.7
20
0
0
SEQEND
0
POLYLINE
8
L1D0
70
1
40
0
41
0
66
1
0
VERTEX
8
L1D0
10
7.7
20
2.2
0
VERTEX
8
L1D0
10
7.7
20
4.2
0
VERTEX
8
L1D0
10
8.7
20
4.2
0
VERTEX
8
L1D0
10
8.7
20
2.2
0
SEQEND
0
POLYLINE
8
L1D0
70
1
40
0
41
0
66
1
0
VERTEX
8
L1D0
10
7.7
20
4.4
0
VERTEX
8
L1D0
10
7.7
20
6.4
0
VERTEX
8
L1D0
10
8.7
20
6.4
0
VERTEX
8
L1D0
10
8.7
20
4.4
0
SEQEND
0
POLYLINE
8
L1D0
70
1
40
0
41
0
66
1
0
VERTEX
8
L1D0
10
7.7
20
6.6
0
VERTEX
8
L1D0
10
7.7
20
8.6
0
VERTEX
8
L1D0
10
8.7
20
8.6
0
VERTEX
8
L1D0
10
8.7
20
6.6
0
SEQEND
0
POLYLINE
8
L1D0
70
1
40
0
41
0
66
1
0
VERTEX
8
L1D0
10
7.7
20
8.8
0
VERTEX
8
L1D0
10
7.7
20
10.8
0
VERTEX
8
L1D0
10
8.7
20
10.8
0
VERTEX
8
L1D0
10
8.7
20
8.8
0
SEQEND
0
POLYLINE
8
L1D0
70
1
40
0
41
0
66
1
0
VERTEX
8
L1D0
10
7.7
20
11
0
VERTEX
8
L1D0
10
7.7
20
13
0
VERTEX
8
L1D0
10
8.7
20
13
0
VERTEX
8
L1D0
10
8.7
20
11
0
SEQEND
0
POLYLINE
8
L1D0
70
1
40
0
41
0
66
1
0
VERTEX
8
L1D0
10
7.7
20
13.2
0
VERTEX
8
L1D0
10
7.7
20
15.2
0
VERTEX
8
L1D0
10
8.7
20
15.2
0
VERTEX
8
L1D0
10
8.7
20
13.2
0
SEQEND
0
POLYLINE
8
L1D0
70
1
40
0
41
0
66
1
0
VERTEX
8
L1D0
10
7.7
20
15.4
0
VERTEX
8
L1D0
10
7.7
20
17.4
0
VERTEX
8
L1D0
10
8.7
20
17.4
0
VERTEX
8
L1D0
10
8.7
20
15.4
0
SEQEND
0
POLYLINE
8
L1D0
70
1
40
0
41
0
66
1
0
VERTEX
8
L1D0
10
7.7
20
17.6
0
VERTEX
8
L1D0
10
7.7
20
19.6
0
VERTEX
8
L1D0
10
8.7
20
19.6
0
VERTEX
8
L1D0
10
8.7
20
17.6
0
SEQEND
0
POLYLINE
8
L1D0
70
1
40
0
41
0
66
1
0
VERTEX
8
L1D0
10
7.7
20
19.8
0
VERTEX
8
L1D0
10
7.7
20
21.8
0
VERTEX
8
L1D0
10
8.7
20
21.8
0
VERTEX
8
L1D0
10
8.7
20
19.8
0
SEQEND
0
POLYLINE
8
L1D0
70
1
40
0
41
0
66
1
0
VERTEX
8
L1D0
10
8.8
20
11
0
VERTEX
8
L1D0
10
8.8
20
13
0
VERTEX
8
L1D0
10
9.8
20
13
0
VERTEX
8
L1D0
10
9.8
20
11
0
SEQEND
0
POLYLINE
8
L1D0
70
1
40
0
41
0
66
1
0
VERTEX
8
L1D0
10
8.8
20
13.2
0
VERTEX
8
L1D0
10
8.8
20
15.2
0
VERTEX
8
L1D0
10
9.8
20
15.2
0
VERTEX
8
L1D0
10
9.8
20
13.2
0
SEQEND
0
POLYLINE
8
L1D0
70
1
40
0
41
0
66
1
0
VERTEX
8
L1D0
10
8.8
20
15.4
0
VERTEX
8
L1D0
10
8.8
20
17.4
0
VERTEX
8
L1D0
10
9.8
20
17.4
0
VERTEX
8
L1D0
10
9.8
20
15.4
0
SEQEND
0
POLYLINE
8
L1D0
70
1
40
0
41
0
66
1
0
VERTEX
8
L1D0
10
8.8
20
17.6
0
VERTEX
8
L1D0
10
8.8
20
19.6
0
VERTEX
8
L1D0
10
9.8
20
19.6
0
VERTEX
8
L1D0
10
9.8
20
17.6
0
SEQEND
0
POLYLINE
8
L1D0
70
1
40
0
41
0
66
1
0
VERTEX
8
L1D0
10
8.8
20
19.8
0
VERTEX
8
L1D0
10
8.8
20
21.8
0
VERTEX
8
L1D0
10
9.8
20
21.8
0
VERTEX
8
L1D0
10
9.8
20
19.8
0
SEQEND
0
POLYLINE
8
L1D0
70
1
40
0
41
0
66
1
0
VERTEX
8
L1D0
10
9.9
20
11
0
VERTEX
8
L1D0
10
9.9
20
13
0
VERTEX
8
L1D0
10
10.9
20
13
0
VERTEX
8
L1D0
10
10.9
20
11
0
SEQEND
0
POLYLINE
8
L1D0
70
1
40
0
41
0
66
1
0
VERTEX
8
L1D0
10
9.9
20
13.2
0
VERTEX
8
L1D0
10
9.9
20
15.2
0
VERTEX
8
L1D0
10
10.9
20
15.2
0
VERTEX
8
L1D0
10
10.9
20
13.2
0
SEQEND
0
POLYLINE
8
L1D0
70
1
40
0
41
0
66
1
0
VERTEX
8
L1D0
10
9.9
20
15.4
0
VERTEX
8
L1D0
10
9.9
20
17.4
0
VERTEX
8
L1D0
10
10.9
20
17.4
0
VERTEX
8
L1D0
10
10.9
20
15.4
0
SEQEND
0
POLYLINE
8
L1D0
70
1
40
0
41
0
66
1
0
VERTEX
8
L1D0
10
9.9
20
17.6
0
VERTEX
8
L1D0
10
9.9
20
19.6
0
VERTEX
8
L1D0
10
10.9
20
19.6
0
VERTEX
8
L1D0
10
10.9
20
17.6
0
SEQEND
0
POLYLINE
8
L1D0
70
1
40
0
41
0
66
1
0
VERTEX
8
L1D0
10
9.9
20
19.8
0
VERTEX
8
L1D0
10
9.9
20
21.8
0
VERTEX
8
L1D0
10
10.9
20
21.8
0
VERTEX
8
L1D0
10
10.9
20
19.8
0
SEQEND
0
POLYLINE
8
L1D0
70
1
40
0
41
0
66
1
0
VERTEX
8
L1D0
10
11
20
11
0
VERTEX
8
L1D0
10
11
20
13
0
VERTEX
8
L1D0
10
12
20
13
0
VERTEX
8
L1D0
10
12
20
11
0
SEQEND
0
POLYLINE
8
L1D0
70
1
40
0
41
0
66
1
0
VERTEX
8
L1D0
10
11
20
13.2
0
VERTEX
8
L1D0
10
11
20
15.2
0
VERTEX
8
L1D0
10
12
20
15.2
0
VERTEX
8
L1D0
10
12
20
13.2
0
SEQEND
0
POLYLINE
8
L1D0
70
1
40
0
41
0
66
1
0
VERTEX
8
L1D0
10
11
20
15.4
0
VERTEX
8
L1D0
10
11
20
17.4
0
VERTEX
8
L1D0
10
12
20
17.4
0
VERTEX
8
L1D0
10
12
20
15.4
0
SEQEND
0
POLYLINE
8
L1D0
70
1
40
0
41
0
66
1
0
VERTEX
8
L1D0
10
11
20
17.6
0
VERTEX
8
L1D0
10
11
20
19.6
0
VERTEX
8
L1D0
10
12
20
19.6
0
VERTEX
8
L1D0
10
12
20
17.6
0
SEQEND
0
POLYLINE
8
L1D0
70
1
40
0
41
0
66
1
0
VERTEX
8
L1D0
10
11
20
19.8
0
VERTEX
8
L1D0
10
11
20
21.8
0
VERTEX
8
L1D0
10
12
20
21.8
0
VERTEX
8
L1D0
10
12
20
19.8
0
SEQEND
0
POLYLINE
8
L1D0
70
1
40
0
41
0
66
1
0
VERTEX
8
L1D0
10
12.1
20
11
0
VERTEX
8
L1D0
10
12.1
20
13
0
VERTEX
8
L1D0
10
13.1
20
13
0
VERTEX
8
L1D0
10
13.1
20
11
0
SEQEND
0
POLYLINE
8
L1D0
70
1
40
0
41
0
66
1
0
VERTEX
8
L1D0
10
12.1
20
13.2
0
VERTEX
8
L1D0
10
12.1
20
15.2
0
VERTEX
8
L1D0
10
13.1
20
15.2
0
VERTEX
8
L1D0
10
13.1
20
13.2
0
SEQEND
0
POLYLINE
8
L1D0
70
1
40
0
41
0
66
1
0
VERTEX
8
L1D0
10
12.1
20
15.4
0
VERTEX
8
L1D0
10
12.1
20
17.4
0
VERTEX
8
L1D0
10
13.1
20
17.4
0
VERTEX
8
L1D0
10
13.1
20
15.4
0
SEQEND
0
POLYLINE
8
L1D0
70
1
40
0
41
0
66
1
0
VERTEX
8
L1D0
10
12.1
20
17.6
0
VERTEX
8
L1D0
10
12.1
20
19.6
0
VERTEX
8
L1D0
10
13.1
20
19.6
0
VERTEX
8
L1D0
10
13.1
20
17.6
0
SEQEND
0
POLYLINE
8
L1D0
70
1
40
0
41
0
66
1
0
VERTEX
8
L1D0
10
12.1
20
19.8
0
VERTEX
8
L1D0
10
12.1
20
21.8
0
VERTEX
8
L1D0
10
13.1
20
21.8
0
VERTEX
8
L1D0
10
13.1
20
19.8
0
SEQEND
0
POLYLINE
8
L1D0
70
1
40
0
41
0
66
1
0
VERTEX
8
L1D0
10
13.2
20
11
0
VERTEX
8
L1D0
10
13.2
20
13
0
VERTEX
8
L1D0
10
14.2
20
13
0
VERTEX
8
L1D0
10
14.2
20
11
0
SEQEND
0
POLYLINE
8
L1D0
70
1
40
0
41
0
66
1
0
VERTEX
8
L1D0
10
13.2
20
13.2
0
VERTEX
8
L1D0
10
13.2
20
15.2
0
VERTEX
8
L1D0
10
14.2
20
15.2
0
VERTEX
8
L1D0
10
14.2
20
13.2
0
SEQEND
0
POLYLINE
8
L1D0
70
1
40
0
41
0
66
1
0
VERTEX
8
L1D0
10
13.2
20
15.4
0
VERTEX
8
L1D0
10
13.2
20
17.4
0
VERTEX
8
L1D0
10
14.2
20
17.4
0
VERTEX
8
L1D0
10
14.2
20
15.4
0
SEQEND
0
POLYLINE
8
L1D0
70
1
40
0
41
0
66
1
0
VERTEX
8
L1D0
10
13.2
20
17.6
0
VERTEX
8
L1D0
10
13.2
20
19.6
0
VERTEX
8
L1D0
10
14.2
20
19.6
0
VERTEX
8
L1D0
10
14.2
20
17.6
0
SEQEND
0
POLYLINE
8
L1D0
70
1
40
0
41
0
66
1
0
VERTEX
8
L1D0
10
13.2
20
19.8
0
VERTEX
8
L1D0
10
13.2
20
21.8
0
VERTEX
8
L1D0
10
14.2
20
21.8
0
VERTEX
8
L1D0
10
14.2
20
19.8
0
SEQEND
0
POLYLINE
8
L1D0
70
1
40
0
41
0
66
1
0
VERTEX
8
L1D0
10
14.3
20
11
0
VERTEX
8
L1D0
10
14.3
20
13
0
VERTEX
8
L1D0
10
15.3
20
13
0
VERTEX
8
L1D0
10
15.3
20
11
0
SEQEND
0
POLYLINE
8
L1D0
70
1
40
0
41
0
66
1
0
VERTEX
8
L1D0
10
14.3
20
13.2
0
VERTEX
8
L1D0
10
14.3
20
15.2
0
VERTEX
8
L1D0
10
15.3
20
15.2
0
VERTEX
8
L1D0
10
15.3
20
13.2
0
SEQEND
0
POLYLINE
8
L1D0
70
1
40
0
41
0
66
1
0
VERTEX
8
L1D0
10
14.3
20
15.4
0
VERTEX
8
L1D0
10
14.3
20
17.4
0
VERTEX
8
L1D0
10
15.3
20
17.4
0
VERTEX
8
L1D0
10
15.3
20
15.4
0
SEQEND
0
POLYLINE
8
L1D0
70
1
40
0
41
0
66
1
0
VERTEX
8
L1D0
10
14.3
20
17.6
0
VERTEX
8
L1D0
10
14.3
20
19.6
0
VERTEX
8
L1D0
10
15.3
20
19.6
0
VERTEX
8
L1D0
10
15.3
20
17.6
0
SEQEND
0
POLYLINE
8
L1D0
70
1
40
0
41
0
66
1
0
VERTEX
8
L1D0
10
14.3
20
19.8
0
VERTEX
8
L1D0
10
14.3
20
21.8
0
VERTEX
8
L1D0
10
15.3
20
21.8
0
VERTEX
8
L1D0
10
15.3
20
19.8
0
SEQEND
0
POLYLINE
8
L1D0
70
1
40
0
41
0
66
1
0
VERTEX
8
L1D0
10
15.4
20
11
0
VERTEX
8
L1D0
10
15.4
20
13
0
VERTEX
8
L1D0
10
16.4
20
13
0
VERTEX
8
L1D0
10
16.4
20
11
0
SEQEND
0
POLYLINE
8
L1D0
70
1
40
0
41
0
66
1
0
VERTEX
8
L1D0
10
15.4
20
13.2
0
VERTEX
8
L1D0
10
15.4
20
15.2
0
VERTEX
8
L1D0
10
16.4
20
15.2
0
VERTEX
8
L1D0
10
16.4
20
13.2
0
SEQEND
0
POLYLINE
8
L1D0
70
1
40
0
41
0
66
1
0
VERTEX
8
L1D0
10
15.4
20
15.4
0
VERTEX
8
L1D0
10
15.4
20
17.4
0
VERTEX
8
L1D0
10
16.4
20
17.4
0
VERTEX
8
L1D0
10
16.4
20
15.4
0
SEQEND
0
POLYLINE
8
L1D0
70
1
40
0
41
0
66
1
0
VERTEX
8
L1D0
10
15.4
20
17.6
0
VERTEX
8
L1D0
10
15.4
20
19.6
0
VERTEX
8
L1D0
10
16.4
20
19.6
0
VERTEX
8
L1D0
10
16.4
20
17.6
0
SEQEND
0
POLYLINE
8
L1D0
70
1
40
0
41
0
66
1
0
VERTEX
8
L1D0
10
15.4
20
19.8
0
VERTEX
8
L1D0
10
15.4
20
21.8
0
VERTEX
8
L1D0
10
16.4
20
21.8
0
VERTEX
8
L1D0
10
16.4
20
19.8
0
SEQEND
0
POLYLINE
8
L1D0
70
1
40
0
41
0
66
1
0
VERTEX
8
L1D0
10
2.2
20
11
0
VERTEX
8
L1D0
10
2.2
20
13
0
VERTEX
8
L1D0
10
3.2
20
13
0
VERTEX
8
L1D0
10
3.2
20
11
0
SEQEND
0
POLYLINE
8
L1D0
70
1
40
0
41
0
66
1
0
VERTEX
8
L1D0
10
2.2
20
13.2
0
VERTEX
8
L1D0
10
2.2
20
15.2
0
VERTEX
8
L1D0
10
3.2
20
15.2
0
VERTEX
8
L1D0
10
3.2
20
13.2
0
SEQEND
0
POLYLINE
8
L1D0
70
1
40
0
41
0
66
1
0
VERTEX
8
L1D0
10
2.2
20
15.4
0
VERTEX
8
L1D0
10
2.2
20
17.4
0
VERTEX
8
L1D0
10
3.2
20
17.4
0
VERTEX
8
L1D0
10
3.2
20
15.4
0
SEQEND
0
POLYLINE
8
L1D0
70
1
40
0
41
0
66
1
0
VERTEX
8
L1D0
10
2.2
20
17.6
0
VERTEX
8
L1D0
10
2.2
20
19.6
0
VERTEX
8
L1D0
10
3.2
20
19.6
0
VERTEX
8
L1D0
10
3.2
20
17.6
0
SEQEND
0
POLYLINE
8
L1D0
70
1
40
0
41
0
66
1
0
VERTEX
8
L1D0
10
2.2
20
19.8
0
VERTEX
8
L1D0
10
2.2
20
21.8
0
VERTEX
8
L1D0
10
3.2
20
21.8
0
VERTEX
8
L1D0
10
3.2
20
19.8
0
SEQEND
0
POLYLINE
8
L1D0
70
1
40
0
41
0
66
1
0
VERTEX
8
L1D0
10
3.3
20
11
0
VERTEX
8
L1D0
10
3.3
20
13
0
VERTEX
8
L1D0
10
4.3
20
13
0
VERTEX
8
L1D0
10
4.3
20
11
0
SEQEND
0
POLYLINE
8
L1D0
70
1
40
0
41
0
66
1
0
VERTEX
8
L1D0
10
3.3
20
13.2
0
VERTEX
8
L1D0
10
3.3
20
15.2
0
VERTEX
8
L1D0
10
4.3
20
15.2
0
VERTEX
8
L1D0
10
4.3
20
13.2
0
SEQEND
0
POLYLINE
8
L1D0
70
1
40
0
41
0
66
1
0
VERTEX
8
L1D0
10
3.3
20
15.4
0
VERTEX
8
L1D0
10
3.3
20
17.4
0
VERTEX
8
L1D0
10
4.3
20
17.4
0
VERTEX
8
L1D0
10
4.3
20
15.4
0
SEQEND
0
POLYLINE
8
L1D0
70
1
40
0
41
0
66
1
0
VERTEX
8
L1D0
10
3.3
20
17.6
0
VERTEX
8
L1D0
10
3.3
20
19.6
0
VERTEX
8
L1D0
10
4.3
20
19.6
0
VERTEX
8
L1D0
10
4.3
20
17.6
0
SEQEND
0
POLYLINE
8
L1D0
70
1
40
0
41
0
66
1
0
VERTEX
8
L1D0
10
3.3
20
19.8
0
VERTEX
8
L1D0
10
3.3
20
21.8
0
VERTEX
8
L1D0
10
4.3
20
21.8
0
VERTEX
8
L1D0
10
4.3
20
19.8
0
SEQEND
0
POLYLINE
8
L1D0
70
1
40
0
41
0
66
1
0
VERTEX
8
L1D0
10
4.4
20
11
0
VERTEX
8
L1D0
10
4.4
20
13
0
VERTEX
8
L1D0
10
5.4
20
13
0
VERTEX
8
L1D0
10
5.4
20
11
0
SEQEND
0
POLYLINE
8
L1D0
70
1
40
0
41
0
66
1
0
VERTEX
8
L1D0
10
4.4
20
13.2
0
VERTEX
8
L1D0
10
4.4
20
15.2
0
VERTEX
8
L1D0
10
5.4
20
15.2
0
VERTEX
8
L1D0
10
5.4
20
13.2
0
SEQEND
0
POLYLINE
8
L1D0
70
1
40
0
41
0
66
1
0
VERTEX
8
L1D0
10
4.4
20
15.4
0
VERTEX
8
L1D0
10
4.4
20
17.4
0
VERTEX
8
L1D0
10
5.4
20
17.4
0
VERTEX
8
L1D0
10
5.4
20
15.4
0
SEQEND
0
POLYLINE
8
L1D0
70
1
40
0
41
0
66
1
0
VERTEX
8
L1D0
10
4.4
20
17.6
0
VERTEX
8
L1D0
10
4.4
20
19.6
0
VERTEX
8
L1D0
10
5.4
20
19.6
0
VERTEX
8
L1D0
10
5.4
20
17.6
0
SEQEND
0
POLYLINE
8
L1D0
70
1
40
0
41
0
66
1
0
VERTEX
8
L1D0
10
4.4
20
19.8
0
VERTEX
8
L1D0
10
4.4
20
21.8
0
VERTEX
8
L1D0
10
5.4
20
21.8
0
VERTEX
8
L1D0
10
5.4
20
19.8
0
SEQEND
0
POLYLINE
8
L1D0
70
1
40
0
41
0
66
1
0
VERTEX
8
L1D0
10
5.5
20
11
0
VERTEX
8
L1D0
10
5.5
20
13
0
VERTEX
8
L1D0
10
6.5
20
13
0
VERTEX
8
L1D0
10
6.5
20
11
0
SEQEND
0
POLYLINE
8
L1D0
70
1
40
0
41
0
66
1
0
VERTEX
8
L1D0
10
5.5
20
13.2
0
VERTEX
8
L1D0
10
5.5
20
15.2
0
VERTEX
8
L1D0
10
6.5
20
15.2
0
VERTEX
8
L1D0
10
6.5
20
13.2
0
SEQEND
0
POLYLINE
8
L1D0
70
1
40
0
41
0
66
1
0
VERTEX
8
L1D0
10
5.5
20
15.4
0
VERTEX
8
L1D0
10
5.5
20
17.4
0
VERTEX
8
L1D0
10
6.5
20
17.4
0
VERTEX
8
L1D0
10
6.5
20
15.4
0
SEQEND
0
POLYLINE
8
L1D0
70
1
40
0
41
0
66
1
0
VERTEX
8
L1D0
10
5.5
20
17.6
0
VERTEX
8
L1D0
10
5.5
20
19.6
0
VERTEX
8
L1D0
10
6.5
20
19.6
0
VERTEX
8
L1D0
10
6.5
20
17.6
0
SEQEND
0
POLYLINE
8
L1D0
70
1
40
0
41
0
66
1
0
VERTEX
8
L1D0
10
5.5
20
19.8
0
VERTEX
8
L1D0
10
5.5
20
21.8
0
VERTEX
8
L1D0
10
6.5
20
21.8
0
VERTEX
8
L1D0
10
6.5
20
19.8
0
SEQEND
0
POLYLINE
8
L1D0
70
1
40
0
41
0
66
1
0
VERTEX
8
L1D0
10
6.6
20
11
0
VERTEX
8
L1D0
10
6.6
20
13
0
VERTEX
8
L1D0
10
7.6
20
13
0
VERTEX
8
L1D0
10
7.6
20
11
0
SEQEND
0
POLYLINE
8
L1D0
70
1
40
0
41
0
66
1
0
VERTEX
8
L1D0
10
6.6
20
13.2
0
VERTEX
8
L1D0
10
6.6
20
15.2
0
VERTEX
8
L1D0
10
7.6
20
15.2
0
VERTEX
8
L1D0
10
7.6
20
13.2
0
SEQEND
0
POLYLINE
8
L1D0
70
1
40
0
41
0
66
1
0
VERTEX
8
L1D0
10
6.6
20
15.4
0
VERTEX
8
L1D0
10
6.6
20
17.4
0
VERTEX
8
L1D0
10
7.6
20
17.4
0
VERTEX
8
L1D0
10
7.6
20
15.4
0
SEQEND
0
POLYLINE
8
L1D0
70
1
40
0
41
0
66
1
0
VERTEX
8
L1D0
10
6.6
20
17.6
0
VERTEX
8
L1D0
10
6.6
20
19.6
0
VERTEX
8
L1D0
10
7.6
20
19.6
0
VERTEX
8
L1D0
10
7.6
20
17.6
0
SEQEND
0
POLYLINE
8
L1D0
70
1
40
0
41
0
66
1
0
VERTEX
8
L1D0
10
6.6
20
19.8
0
VERTEX
8
L1D0
10
6.6
20
21.8
0
VERTEX
8
L1D0
10
7.6
20
21.8
0
VERTEX
8
L1D0
10
7.6
20
19.8
0
SEQEND
0
POLYLINE
8
L1D0
70
1
40
0
41
0
66
1
0
VERTEX
8
L1D0
10
0
20
11
0
VERTEX
8
L1D0
10
0
20
13
0
VERTEX
8
L1D0
10
1
20
13
0
VERTEX
8
L1D0
10
1
20
11
0
SEQEND
0
POLYLINE
8
L1D0
70
1
40
0
41
0
66
1
0
VERTEX
8
L1D0
10
0
20
13.2
0
VERTEX
8
L1D0
10
0
20
15.2
0
VERTEX
8
L1D0
10
1
20
15.2
0
VERTEX
8
L1D0
10
1
20
13.2
0
SEQEND
0
POLYLINE
8
L1D0
70
1
40
0
41
0
66
1
0
VERTEX
8
L1D0
10
0
20
15.4
0
VERTEX
8
L1D0
10
0
20
17.4
0
VERTEX
8
L1D0
10
1
20
17.4
0
VERTEX
8
L1D0
10
1
20
15.4
0
SEQEND
0
POLYLINE
8
L1D0
70
1
40
0
41
0
66
1
0
VERTEX
8
L1D0
10
0
20
17.6
0
VERTEX
8
L1D0
10
0
20
19.6
0
VERTEX
8
L1D0
10
1
20
19.6
0
VERTEX
8
L1D0
10
1
20
17.6
0
SEQEND
0
POLYLINE
8
L1D0
70
1
40
0
41
0
66
1
0
VERTEX
8
L1D0
10
0
20
19.8
0
VERTEX
8
L1D0
10
0
20
21.8
0
VERTEX
8
L1D0
10
1
20
21.8
0
VERTEX
8
L1D0
10
1
20
19.8
0
SEQEND
0
POLYLINE
8
L1D0
70
1
40
0
41
0
66
1
0
VERTEX
8
L1D0
10
1.1
20
11
0
VERTEX
8
L1D0
10
1.1
20
13
0
VERTEX
8
L1D0
10
2.1
20
13
0
VERTEX
8
L1D0
10
2.1
20
11
0
SEQEND
0
POLYLINE
8
L1D0
70
1
40
0
41
0
66
1
0
VERTEX
8
L1D0
10
1.1
20
13.2
0
VERTEX
8
L1D0
10
1.1
20
15.2
0
VERTEX
8
L1D0
10
2.1
20
15.2
0
VERTEX
8
L1D0
10
2.1
20
13.2
0
SEQEND
0
POLYLINE
8
L1D0
70
1
40
0
41
0
66
1
0
VERTEX
8
L1D0
10
1.1
20
15.4
0
VERTEX
8
L1D0
10
1.1
20
17.4
0
VERTEX
8
L1D0
10
2.1
20
17.4
0
VERTEX
8
L1D0
10
2.1
20
15.4
0
SEQEND
0
POLYLINE
8
L1D0
70
1
40
0
41
0
66
1
0
VERTEX
8
L1D0
10
1.1
20
17.6
0
VERTEX
8
L1D0
10
1.1
20
19.6
0
VERTEX
8
L1D0
10
2.1
20
19.6
0
VERTEX
8
L1D0
10
2.1
20
17.6
0
SEQEND
0
POLYLINE
8
L1D0
70
1
40
0
41
0
66
1
0
VERTEX
8
L1D0
10
1.1
20
19.8
0
VERTEX
8
L1D0
10
1.1
20
21.8
0
VERTEX
8
L1D0
10
2.1
20
21.8
0
VERTEX
8
L1D0
10
2.1
20
19.8
0
SEQEND
0
POLYLINE
8
L1D0
70
1
40
0
41
0
66
1
0
VERTEX
8
L1D0
10
2.2
20
0
0
VERTEX
8
L1D0
10
2.2
20
2
0
VERTEX
8
L1D0
10
3.2
20
2
0
VERTEX
8
L1D0
10
3.2
20
0
0
SEQEND
0
POLYLINE
8
L1D0
70
1
40
0
41
0
66
1
0
VERTEX
8
L1D0
10
2.2
20
2.2
0
VERTEX
8
L1D0
10
2.2
20
4.2
0
VERTEX
8
L1D0
10
3.2
20
4.2
0
VERTEX
8
L1D0
10
3.2
20
2.2
0
SEQEND
0
POLYLINE
8
L1D0
70
1
40
0
41
0
66
1
0
VERTEX
8
L1D0
10
2.2
20
4.4
0
VERTEX
8
L1D0
10
2.2
20
6.4
0
VERTEX
8
L1D0
10
3.2
20
6.4
0
VERTEX
8
L1D0
10
3.2
20
4.4
0
SEQEND
0
POLYLINE
8
L1D0
70
1
40
0
41
0
66
1
0
VERTEX
8
L1D0
10
2.2
20
6.6
0
VERTEX
8
L1D0
10
2.2
20
8.6
0
VERTEX
8
L1D0
10
3.2
20
8.6
0
VERTEX
8
L1D0
10
3.2
20
6.6
0
SEQEND
0
POLYLINE
8
L1D0
70
1
40
0
41
0
66
1
0
VERTEX
8
L1D0
10
2.2
20
8.8
0
VERTEX
8
L1D0
10
2.2
20
10.8
0
VERTEX
8
L1D0
10
3.2
20
10.8
0
VERTEX
8
L1D0
10
3.2
20
8.8
0
SEQEND
0
POLYLINE
8
L1D0
70
1
40
0
41
0
66
1
0
VERTEX
8
L1D0
10
5.5
20
0
0
VERTEX
8
L1D0
10
5.5
20
2
0
VERTEX
8
L1D0
10
6.5
20
2
0
VERTEX
8
L1D0
10
6.5
20
0
0
SEQEND
0
POLYLINE
8
L1D0
70
1
40
0
41
0
66
1
0
VERTEX
8
L1D0
10
5.5
20
2.2
0
VERTEX
8
L1D0
10
5.5
20
4.2
0
VERTEX
8
L1D0
10
6.5
20
4.2
0
VERTEX
8
L1D0
10
6.5
20
2.2
0
SEQEND
0
POLYLINE
8
L1D0
70
1
40
0
41
0
66
1
0
VERTEX
8
L1D0
10
5.5
20
4.4
0
VERTEX
8
L1D0
10
5.5
20
6.4
0
VERTEX
8
L1D0
10
6.5
20
6.4
0
VERTEX
8
L1D0
10
6.5
20
4.4
0
SEQEND
0
POLYLINE
8
L1D0
70
1
40
0
41
0
66
1
0
VERTEX
8
L1D0
10
5.5
20
6.6
0
VERTEX
8
L1D0
10
5.5
20
8.6
0
VERTEX
8
L1D0
10
6.5
20
8.6
0
VERTEX
8
L1D0
10
6.5
20
6.6
0
SEQEND
0
POLYLINE
8
L1D0
70
1
40
0
41
0
66
1
0
VERTEX
8
L1D0
10
5.5
20
8.8
0
VERTEX
8
L1D0
10
5.5
20
10.8
0
VERTEX
8
L1D0
10
6.5
20
10.8
0
VERTEX
8
L1D0
10
6.5
20
8.8
0
SEQEND
0
POLYLINE
8
L1D0
70
1
40
0
41
0
66
1
0
VERTEX
8
L1D0
10
1.1
20
0
0
VERTEX
8
L1D0
10
1.1
20
2
0
VERTEX
8
L1D0
10
2.1
20
2
0
VERTEX
8
L1D0
10
2.1
20
0
0
SEQEND
0
POLYLINE
8
L1D0
70
1
40
0
41
0
66
1
0
VERTEX
8
L1D0
10
1.1
20
2.2
0
VERTEX
8
L1D0
10
1.1
20
4.2
0
VERTEX
8
L1D0
10
2.1
20
4.2
0
VERTEX
8
L1D0
10
2.1
20
2.2
0
SEQEND
0
POLYLINE
8
L1D0
70
1
40
0
41
0
66
1
0
VERTEX
8
L1D0
10
1.1
20
4.4
0
VERTEX
8
L1D0
10
1.1
20
6.4
0
VERTEX
8
L1D0
10
2.1
20
6.4
0
VERTEX
8
L1D0
10
2.1
20
4.4
0
SEQEND
0
POLYLINE
8
L1D0
70
1
40
0
41
0
66
1
0
VERTEX
8
L1D0
10
1.1
20
6.6
0
VERTEX
8
L1D0
10
1.1
20
8.6
0
VERTEX
8
L1D0
10
2.1
20
8.6
0
VERTEX
8
L1D0
10
2.1
20
6.6
0
SEQEND
0
POLYLINE
8
L1D0
70
1
40
0
41
0
66
1
0
VERTEX
8
L1D0
10
1.1
20
8.8
0
VERTEX
8
L1D0
10
1.1
20
10.8
0
VERTEX
8
L1D0
10
2.1
20
10.8
0
VERTEX
8
L1D0
10
2.1
20
8.8
0
SEQEND
0
POLYLINE
8
L1D0
70
1
40
0
41
0
66
1
0
VERTEX
8
L1D0
10
6.6
20
0
0
VERTEX
8
L1D0
10
6.6
20
2
0
VERTEX
8
L1D0
10
7.6
20
2
0
VERTEX
8
L1D0
10
7.6
20
0
0
SEQEND
0
POLYLINE
8
L1D0
70
1
40
0
41
0
66
1
0
VERTEX
8
L1D0
10
6.6
20
2.2
0
VERTEX
8
L1D0
10
6.6
20
4.2
0
VERTEX
8
L1D0
10
7.6
20
4.2
0
VERTEX
8
L1D0
10
7.6
20
2.2
0
SEQEND
0
POLYLINE
8
L1D0
70
1
40
0
41
0
66
1
0
VERTEX
8
L1D0
10
6.6
20
4.4
0
VERTEX
8
L1D0
10
6.6
20
6.4
0
VERTEX
8
L1D0
10
7.6
20
6.4
0
VERTEX
8
L1D0
10
7.6
20
4.4
0
SEQEND
0
POLYLINE
8
L1D0
70
1
40
0
41
0
66
1
0
VERTEX
8
L1D0
10
6.6
20
6.6
0
VERTEX
8
L1D0
10
6.6
20
8.6
0
VERTEX
8
L1D0
10
7.6
20
8.6
0
VERTEX
8
L1D0
10
7.6
20
6.6
0
SEQEND
0
POLYLINE
8
L1D0
70
1
40
0
41
0
66
1
0
VERTEX
8
L1D0
10
6.6
20
8.8
0
VERTEX
8
L1D0
10
6.6
20
10.8
0
VERTEX
8
L1D0
10
7.6
20
10.8
0
VERTEX
8
L1D0
10
7.6
20
8.8
0
SEQEND
0
POLYLINE
8
L1D0
70
1
40
0
41
0
66
1
0
VERTEX
8
L1D0
10
3.3
20
0
0
VERTEX
8
L1D0
10
3.3
20
2
0
VERTEX
8
L1D0
10
4.3
20
2
0
VERTEX
8
L1D0
10
4.3
20
0
0
SEQEND
0
POLYLINE
8
L1D0
70
1
40
0
41
0
66
1
0
VERTEX
8
L1D0
10
3.3
20
2.2
0
VERTEX
8
L1D0
10
3.3
20
4.2
0
VERTEX
8
L1D0
10
4.3
20
4.2
0
VERTEX
8
L1D0
10
4.3
20
2.2
0
SEQEND
0
POLYLINE
8
L1D0
70
1
40
0
41
0
66
1
0
VERTEX
8
L1D0
10
3.3
20
4.4
0
VERTEX
8
L1D0
10
3.3
20
6.4
0
VERTEX
8
L1D0
10
4.3
20
6.4
0
VERTEX
8
L1D0
10
4.3
20
4.4
0
SEQEND
0
POLYLINE
8
L1D0
70
1
40
0
41
0
66
1
0
VERTEX
8
L1D0
10
3.3
20
6.6
0
VERTEX
8
L1D0
10
3.3
20
8.6
0
VERTEX
8
L1D0
10
4.3
20
8.6
0
VERTEX
8
L1D0
10
4.3
20
6.6
0
SEQEND
0
POLYLINE
8
L1D0
70
1
40
0
41
0
66
1
0
VERTEX
8
L1D0
10
3.3
20
8.8
0
VERTEX
8
L1D0
10
3.3
20
10.8
0
VERTEX
8
L1D0
10
4.3
20
10.8
0
VERTEX
8
L1D0
10
4.3
20
8.8
0
SEQEND
0
POLYLINE
8
L1D0
70
1
40
0
41
0
66
1
0
VERTEX
8
L1D0
10
0
20
0
0
VERTEX
8
L1D0
10
0
20
2
0
VERTEX
8
L1D0
10
1
20
2
0
VERTEX
8
L1D0
10
1
20
0
0
SEQEND
0
POLYLINE
8
L1D0
70
1
40
0
41
0
66
1
0
VERTEX
8
L1D0
10
0
20
2.2
0
VERTEX
8
L1D0
10
0
20
4.2
0
VERTEX
8
L1D0
10
1
20
4.2
0
VERTEX
8
L1D0
10
1
20
2.2
0
SEQEND
0
POLYLINE
8
L1D0
70
1
40
0
41
0
66
1
0
VERTEX
8
L1D0
10
0
20
4.4
0
VERTEX
8
L1D0
10
0
20
6.4
0
VERTEX
8
L1D0
10
1
20
6.4
0
VERTEX
8
L1D0
10
1
20
4.4
0
SEQEND
0
POLYLINE
8
L1D0
70
1
40
0
41
0
66
1
0
VERTEX
8
L1D0
10
0
20
6.6
0
VERTEX
8
L1D0
10
0
20
8.6
0
VERTEX
8
L1D0
10
1
20
8.6
0
VERTEX
8
L1D0
10
1
20
6.6
0
SEQEND
0
POLYLINE
8
L1D0
70
1
40
0
41
0
66
1
0
VERTEX
8
L1D0
10
0
20
8.8
0
VERTEX
8
L1D0
10
0
20
10.8
0
VERTEX
8
L1D0
10
1
20
10.8
0
VERTEX
8
L1D0
10
1
20
8.8
0
SEQEND
0
POLYLINE
8
L1D0
70
1
40
0
41
0
66
1
0
VERTEX
8
L1D0
10
4.4
20
0
0
VERTEX
8
L1D0
10
4.4
20
2
0
VERTEX
8
L1D0
10
5.4
20
2
0
VERTEX
8
L1D0
10
5.4
20
0
0
SEQEND
0
POLYLINE
8
L1D0
70
1
40
0
41
0
66
1
0
VERTEX
8
L1D0
10
4.4
20
2.2
0
VERTEX
8
L1D0
10
4.4
20
4.2
0
VERTEX
8
L1D0
10
5.4
20
4.2
0
VERTEX
8
L1D0
10
5.4
20
2.2
0
SEQEND
0
POLYLINE
8
L1D0
70
1
40
0
41
0
66
1
0
VERTEX
8
L1D0
10
4.4
20
4.4
0
VERTEX
8
L1D0
10
4.4
20
6.4
0
VERTEX
8
L1D0
10
5.4
20
6.4
0
VERTEX
8
L1D0
10
5.4
20
4.4
0
SEQEND
0
POLYLINE
8
L1D0
70
1
40
0
41
0
66
1
0
VERTEX
8
L1D0
10
4.4
20
6.6
0
VERTEX
8
L1D0
10
4.4
20
8.6
0
VERTEX
8
L1D0
10
5.4
20
8.6
0
VERTEX
8
L1D0
10
5.4
20
6.6
0
SEQEND
0
POLYLINE
8
L1D0
70
1
40
0
41
0
66
1
0
VERTEX
8
L1D0
10
4.4
20
8.8
0
VERTEX
8
L1D0
10
4.4
20
10.8
0
VERTEX
8
L1D0
10
5.4
20
10.8
0
VERTEX
8
L1D0
10
5.4
20
8.8
0
SEQEND
0
POLYLINE
8
L1D0
70
1
40
0
41
0
66
1
0
VERTEX
8
L1D0
10
8.8
20
0
0
VERTEX
8
L1D0
10
8.8
20
2
0
VERTEX
8
L1D0
10
9.8
20
2
0
VERTEX
8
L1D0
10
9.8
20
0
0
SEQEND
0
POLYLINE
8
L1D0
70
1
40
0
41
0
66
1
0
VERTEX
8
L1D0
10
8.8
20
2.2
0
VERTEX
8
L1D0
10
8.8
20
4.2
0
VERTEX
8
L1D0
10
9.8
20
4.2
0
VERTEX
8
L1D0
10
9.8
20
2.2
0
SEQEND
0
POLYLINE
8
L1D0
70
1
40
0
41
0
66
1
0
VERTEX
8
L1D0
10
8.8
20
4.4
0
VERTEX
8
L1D0
10
8.8
20
6.4
0
VERTEX
8
L1D0
10
9.8
20
6.4
0
VERTEX
8
L1D0
10
9.8
20
4.4
0
SEQEND
0
POLYLINE
8
L1D0
70
1
40
0
41
0
66
1
0
VERTEX
8
L1D0
10
8.8
20
6.6
0
VERTEX
8
L1D0
10
8.8
20
8.6
0
VERTEX
8
L1D0
10
9.8
20
8.6
0
VERTEX
8
L1D0
10
9.8
20
6.6
0
SEQEND
0
POLYLINE
8
L1D0
70
1
40
0
41
0
66
1
0
VERTEX
8
L1D0
10
8.8
20
8.8
0
VERTEX
8
L1D0
10
8.8
20
10.8
0
VERTEX
8
L1D0
10
9.8
20
10.8
0
VERTEX
8
L1D0
10
9.8
20
8.8
0
SEQEND
0
POLYLINE
8
L1D0
70
1
40
0
41
0
66
1
0
VERTEX
8
L1D0
10
13.2
20
0
0
VERTEX
8
L1D0
10
13.2
20
2
0
VERTEX
8
L1D0
10
14.2
20
2
0
VERTEX
8
L1D0
10
14.2
20
0
0
SEQEND
0
POLYLINE
8
L1D0
70
1
40
0
41
0
66
1
0
VERTEX
8
L1D0
10
13.2
20
2.2
0
VERTEX
8
L1D0
10
13.2
20
4.2
0
VERTEX
8
L1D0
10
14.2
20
4.2
0
VERTEX
8
L1D0
10
14.2
20
2.2
0
SEQEND
0
POLYLINE
8
L1D0
70
1
40
0
41
0
66
1
0
VERTEX
8
L1D0
10
13.2
20
4.4
0
VERTEX
8
L1D0
10
13.2
20
6.4
0
VERTEX
8
L1D0
10
14.2
20
6.4
0
VERTEX
8
L1D0
10
14.2
20
4.4
0
SEQEND
0
POLYLINE
8
L1D0
70
1
40
0
41
0
66
1
0
VERTEX
8
L1D0
10
13.2
20
6.6
0
VERTEX
8
L1D0
10
13.2
20
8.6
0
VERTEX
8
L1D0
10
14.2
20
8.6
0
VERTEX
8
L1D0
10
14.2
20
6.6
0
SEQEND
0
POLYLINE
8
L1D0
70
1
40
0
41
0
66
1
0
VERTEX
8
L1D0
10
13.2
20
8.8
0
VERTEX
8
L1D0
10
13.2
20
10.8
0
VERTEX
8
L1D0
10
14.2
20
10.8
0
VERTEX
8
L1D0
10
14.2
20
8.8
0
SEQEND
0
POLYLINE
8
L1D0
70
1
40
0
41
0
66
1
0
VERTEX
8
L1D0
10
11
20
0
0
VERTEX
8
L1D0
10
11
20
2
0
VERTEX
8
L1D0
10
12
20
2
0
VERTEX
8
L1D0
10
12
20
0
0
SEQEND
0
POLYLINE
8
L1D0
70
1
40
0
41
0
66
1
0
VERTEX
8
L1D0
10
11
20
2.2
0
VERTEX
8
L1D0
10
11
20
4.2
0
VERTEX
8
L1D0
10
12
20
4.2
0
VERTEX
8
L1D0
10
12
20
2.2
0
SEQEND
0
POLYLINE
8
L1D0
70
1
40
0
41
0
66
1
0
VERTEX
8
L1D0
10
11
20
4.4
0
VERTEX
8
L1D0
10
11
20
6.4
0
VERTEX
8
L1D0
10
12
20
6.4
0
VERTEX
8
L1D0
10
12
20
4.4
0
SEQEND
0
POLYLINE
8
L1D0
70
1
40
0
41
0
66
1
0
VERTEX
8
L1D0
10
11
20
6.6
0
VERTEX
8
L1D0
10
11
20
8.6
0
VERTEX
8
L1D0
10
12
20
8.6
0
VERTEX
8
L1D0
10
12
20
6.6
0
SEQEND
0
POLYLINE
8
L1D0
70
1
40
0
41
0
66
1
0
VERTEX
8
L1D0
10
11
20
8.8
0
VERTEX
8
L1D0
10
11
20
10.8
0
VERTEX
8
L1D0
10
12
20
10.8
0
VERTEX
8
L1D0
10
12
20
8.8
0
SEQEND
0
POLYLINE
8
L1D0
70
1
40
0
41
0
66
1
0
VERTEX
8
L1D0
10
14.3
20
0
0
VERTEX
8
L1D0
10
14.3
20
2
0
VERTEX
8
L1D0
10
15.3
20
2
0
VERTEX
8
L1D0
10
15.3
20
0
0
SEQEND
0
POLYLINE
8
L1D0
70
1
40
0
41
0
66
1
0
VERTEX
8
L1D0
10
14.3
20
2.2
0
VERTEX
8
L1D0
10
14.3
20
4.2
0
VERTEX
8
L1D0
10
15.3
20
4.2
0
VERTEX
8
L1D0
10
15.3
20
2.2
0
SEQEND
0
POLYLINE
8
L1D0
70
1
40
0
41
0
66
1
0
VERTEX
8
L1D0
10
14.3
20
4.4
0
VERTEX
8
L1D0
10
14.3
20
6.4
0
VERTEX
8
L1D0
10
15.3
20
6.4
0
VERTEX
8
L1D0
10
15.3
20
4.4
0
SEQEND
0
POLYLINE
8
L1D0
70
1
40
0
41
0
66
1
0
VERTEX
8
L1D0
10
14.3
20
6.6
0
VERTEX
8
L1D0
10
14.3
20
8.6
0
VERTEX
8
L1D0
10
15.3
20
8.6
0
VERTEX
8
L1D0
10
15.3
20
6.6
0
SEQEND
0
POLYLINE
8
L1D0
70
1
40
0
41
0
66
1
0
VERTEX
8
L1D0
10
14.3
20
8.8
0
VERTEX
8
L1D0
10
14.3
20
10.8
0
VERTEX
8
L1D0
10
15.3
20
10.8
0
VERTEX
8
L1D0
10
15.3
20
8.8
0
SEQEND
0
POLYLINE
8
L1D0
70
1
40
0
41
0
66
1
0
VERTEX
8
L1D0
10
9.9
20
0
0
VERTEX
8
L1D0
10
9.9
20
2
0
VERTEX
8
L1D0
10
10.9
20
2
0
VERTEX
8
L1D0
10
10.9
20
0
0
SEQEND
0
POLYLINE
8
L1D0
70
1
40
0
41
0
66
1
0
VERTEX
8
L1D0
10
9.9
20
2.2
0
VERTEX
8
L1D0
10
9.9
20
4.2
0
VERTEX
8
L1D0
10
10.9
20
4.2
0
VERTEX
8
L1D0
10
10.9
20
2.2
0
SEQEND
0
POLYLINE
8
L1D0
70
1
40
0
41
0
66
1
0
VERTEX
8
L1D0
10
9.9
20
4.4
0
VERTEX
8
L1D0
10
9.9
20
6.4
0
VERTEX
8
L1D0
10
10.9
20
6.4
0
VERTEX
8
L1D0
10
10.9
20
4.4
0
SEQEND
0
POLYLINE
8
L1D0
70
1
40
0
41
0
66
1
0
VERTEX
8
L1D0
10
9.9
20
6.6
0
VERTEX
8
L1D0
10
9.9
20
8.6
0
VERTEX
8
L1D0
10
10.9
20
8.6
0
VERTEX
8
L1D0
10
10.9
20
6.6
0
SEQEND
0
POLYLINE
8
L1D0
70
1
40
0
41
0
66
1
0
VERTEX
8
L1D0
10
9.9
20
8.8
0
VERTEX
8
L1D0
10
9.9
20
10.8
0
VERTEX
8
L1D0
10
10.9
20
10.8
0
VERTEX
8
L1D0
10
10.9
20
8.8
0
SEQEND
0
POLYLINE
8
L1D0
70
1
40
0
41
0
66
1
0
VERTEX
8
L1D0
10
15.4
20
0
0
VERTEX
8
L1D0
10
15.4
20
2
0
VERTEX
8
L1D0
10
16.4
20
2
0
VERTEX
8
L1D0
10
16.4
20
0
0
SEQEND
0
POLYLINE
8
L1D0
70
1
40
0
41
0
66
1
0
VERTEX
8
L1D0
10
15.4
20
2.2
0
VERTEX
8
L1D0
10
15.4
20
4.2
0
VERTEX
8
L1D0
10
16.4
20
4.2
0
VERTEX
8
L1D0
10
16.4
20
2.2
0
SEQEND
0
POLYLINE
8
L1D0
70
1
40
0
41
0
66
1
0
VERTEX
8
L1D0
10
15.4
20
4.4
0
VERTEX
8
L1D0
10
15.4
20
6.4
0
VERTEX
8
L1D0
10
16.4
20
6.4
0
VERTEX
8
L1D0
10
16.4
20
4.4
0
SEQEND
0
POLYLINE
8
L1D0
70
1
40
0
41
0
66
1
0
VERTEX
8
L1D0
10
15.4
20
6.6
0
VERTEX
8
L1D0
10
15.4
20
8.6
0
VERTEX
8
L1D0
10
16.4
20
8.6
0
VERTEX
8
L1D0
10
16.4
20
6.6
0
SEQEND
0
POLYLINE
8
L1D0
70
1
40
0
41
0
66
1
0
VERTEX
8
L1D0
10
15.4
20
8.8
0
VERTEX
8
L1D0
10
15.4
20
10.8
0
VERTEX
8
L1D0
10
16.4
20
10.8
0
VERTEX
8
L1D0
10
16.4
20
8.8
0
SEQEND
0
POLYLINE
8
L1D0
70
1
40
0
41
0
66
1
0
VERTEX
8
L1D0
10
12.1
20
0
0
VERTEX
8
L1D0
10
12.1
20
2
0
VERTEX
8
L1D0
10
13.1
20
2
0
VERTEX
8
L1D0
10
13.1
20
0
0
SEQEND
0
POLYLINE
8
L1D0
70
1
40
0
41
0
66
1
0
VERTEX
8
L1D0
10
12.1
20
2.2
0
VERTEX
8
L1D0
10
12.1
20
4.2
0
VERTEX
8
L1D0
10
13.1
20
4.2
0
VERTEX
8
L1D0
10
13.1
20
2.2
0
SEQEND
0
POLYLINE
8
L1D0
70
1
40
0
41
0
66
1
0
VERTEX
8
L1D0
10
12.1
20
4.4
0
VERTEX
8
L1D0
10
12.1
20
6.4
0
VERTEX
8
L1D0
10
13.1
20
6.4
0
VERTEX
8
L1D0
10
13.1
20
4.4
0
SEQEND
0
POLYLINE
8
L1D0
70
1
40
0
41
0
66
1
0
VERTEX
8
L1D0
10
12.1
20
6.6
0
VERTEX
8
L1D0
10
12.1
20
8.6
0
VERTEX
8
L1D0
10
13.1
20
8.6
0
VERTEX
8
L1D0
10
13.1
20
6.6
0
SEQEND
0
POLYLINE
8
L1D0
70
1
40
0
41
0
66
1
0
VERTEX
8
L1D0
10
12.1
20
8.8
0
VERTEX
8
L1D0
10
12.1
20
10.8
0
VERTEX
8
L1D0
10
13.1
20
10.8
0
VERTEX
8
L1D0
10
13.1
20
8.8
0
SEQEND
0
ENDSEC
0
EOF
