0
SECTION
2
HEADER
9
$ACADVER
1
AC1006
0
ENDSEC
0
SECTION
2
TABLES
0
TABLE
2
LAYER
70
1
0
LAYER
70
0
62
1
6
CONTINUOUS
2
L2D0
0
ENDTAB
0
ENDSEC
0
SECTION
2
BLOCKS
0
ENDSEC
0
SECTION
2
ENTITIES
0
POLYLINE
8
L2D0
70
1
40
0
41
0
66
1
0
VERTEX
8
L2D0
10
7.7
20
1
0
VERTEX
8
L2D0
10
7.7
20
1.2
0
VERTEX
8
L2D0
10
8.7
20
1.2
0
VERTEX
8
L2D0
10
8.7
20
1
0
SEQEND
0
POLYLINE
8
L2D0
70
1
40
0
41
0
66
1
0
VERTEX
8
L2D0
10
7.7
20
3.2
0
VERTEX
8
L2D0
10
7.7
20
3.4
0
VERTEX
8
L2D0
10
8.7
20
3.4
0
VERTEX
8
L2D0
10
8.7
20
3.2
0
SEQEND
0
POLYLINE
8
L2D0
70
1
40
0
41
0
66
1
0
VERTEX
8
L2D0
10
7.7
20
5.4
0
VERTEX
8
L2D0
10
7.7
20
5.6
0
VERTEX
8
L2D0
10
8.7
20
5.6
0
VERTEX
8
L2D0
10
8.7
20
5.4
0
SEQEND
0
POLYLINE
8
L2D0
70
1
40
0
41
0
66
1
0
VERTEX
8
L2D0
10
7.7
20
7.6
0
VERTEX
8
L2D0
10
7.7
20
7.8
0
VERTEX
8
L2D0
10
8.7
20
7.8
0
VERTEX
8
L2D0
10
8.7
20
7.6
0
SEQEND
0
POLYLINE
8
L2D0
70
1
40
0
41
0
66
1
0
VERTEX
8
L2D0
10
7.7
20
9.8
0
VERTEX
8
L2D0
10
7.7
20
10
0
VERTEX
8
L2D0
10
8.7
20
10
0
VERTEX
8
L2D0
10
8.7
20
9.8
0
SEQEND
0
POLYLINE
8
L2D0
70
1
40
0
41
0
66
1
0
VERTEX
8
L2D0
10
7.7
20
12
0
VERTEX
8
L2D0
10
7.7
20
12.2
0
VERTEX
8
L2D0
10
8.7
20
12.2
0
VERTEX
8
L2D0
10
8.7
20
12
0
SEQEND
0
POLYLINE
8
L2D0
70
1
40
0
41
0
66
1
0
VERTEX
8
L2D0
10
7.7
20
14.2
0
VERTEX
8
L2D0
10
7.7
20
14.4
0
VERTEX
8
L2D0
10
8.7
20
14.4
0
VERTEX
8
L2D0
10
8.7
20
14.2
0
SEQEND
0
POLYLINE
8
L2D0
70
1
40
0
41
0
66
1
0
VERTEX
8
L2D0
10
7.7
20
16.4
0
VERTEX
8
L2D0
10
7.7
20
16.6
0
VERTEX
8
L2D0
10
8.7
20
16.6
0
VERTEX
8
L2D0
10
8.7
20
16.4
0
SEQEND
0
POLYLINE
8
L2D0
70
1
40
0
41
0
66
1
0
VERTEX
8
L2D0
10
7.7
20
18.6
0
VERTEX
8
L2D0
10
7.7
20
18.8
0
VERTEX
8
L2D0
10
8.7
20
18.8
0
VERTEX
8
L2D0
10
8.7
20
18.6
0
SEQEND
0
POLYLINE
8
L2D0
70
1
40
0
41
0
66
1
0
VERTEX
8
L2D0
10
7.7
20
20.8
0
VERTEX
8
L2D0
10
7.7
20
21
0
VERTEX
8
L2D0
10
8.7
20
21
0
VERTEX
8
L2D0
10
8.7
20
20.8
0
SEQEND
0
POLYLINE
8
L2D0
70
1
40
0
41
0
66
1
0
VERTEX
8
L2D0
10
8.8
20
12
0
VERTEX
8
L2D0
10
8.8
20
12.2
0
VERTEX
8
L2D0
10
9.8
20
12.2
0
VERTEX
8
L2D0
10
9.8
20
12
0
SEQEND
0
POLYLINE
8
L2D0
70
1
40
0
41
0
66
1
0
VERTEX
8
L2D0
10
8.8
20
14.2
0
VERTEX
8
L2D0
10
8.8
20
14.4
0
VERTEX
8
L2D0
10
9.8
20
14.4
0
VERTEX
8
L2D0
10
9.8
20
14.2
0
SEQEND
0
POLYLINE
8
L2D0
70
1
40
0
41
0
66
1
0
VERTEX
8
L2D0
10
8.8
20
16.4
0
VERTEX
8
L2D0
10
8.8
20
16.6
0
VERTEX
8
L2D0
10
9.8
20
16.6
0
VERTEX
8
L2D0
10
9.8
20
16.4
0
SEQEND
0
POLYLINE
8
L2D0
70
1
40
0
41
0
66
1
0
VERTEX
8
L2D0
10
8.8
20
18.6
0
VERTEX
8
L2D0
10
8.8
20
18.8
0
VERTEX
8
L2D0
10
9.8
20
18.8
0
VERTEX
8
L2D0
10
9.8
20
18.6
0
SEQEND
0
POLYLINE
8
L2D0
70
1
40
0
41
0
66
1
0
VERTEX
8
L2D0
10
8.8
20
20.8
0
VERTEX
8
L2D0
10
8.8
20
21
0
VERTEX
8
L2D0
10
9.8
20
21
0
VERTEX
8
L2D0
10
9.8
20
20.8
0
SEQEND
0
POLYLINE
8
L2D0
70
1
40
0
41
0
66
1
0
VERTEX
8
L2D0
10
9.9
20
12
0
VERTEX
8
L2D0
10
9.9
20
12.2
0
VERTEX
8
L2D0
10
10.9
20
12.2
0
VERTEX
8
L2D0
10
10.9
20
12
0
SEQEND
0
POLYLINE
8
L2D0
70
1
40
0
41
0
66
1
0
VERTEX
8
L2D0
10
9.9
20
14.2
0
VERTEX
8
L2D0
10
9.9
20
14.4
0
VERTEX
8
L2D0
10
10.9
20
14.4
0
VERTEX
8
L2D0
10
10.9
20
14.2
0
SEQEND
0
POLYLINE
8
L2D0
70
1
40
0
41
0
66
1
0
VERTEX
8
L2D0
10
9.9
20
16.4
0
VERTEX
8
L2D0
10
9.9
20
16.6
0
VERTEX
8
L2D0
10
10.9
20
16.6
0
VERTEX
8
L2D0
10
10.9
20
16.4
0
SEQEND
0
POLYLINE
8
L2D0
70
1
40
0
41
0
66
1
0
VERTEX
8
L2D0
10
9.9
20
18.6
0
VERTEX
8
L2D0
10
9.9
20
18.8
0
VERTEX
8
L2D0
10
10.9
20
18.8
0
VERTEX
8
L2D0
10
10.9
20
18.6
0
SEQEND
0
POLYLINE
8
L2D0
70
1
40
0
41
0
66
1
0
VERTEX
8
L2D0
10
9.9
20
20.8
0
VERTEX
8
L2D0
10
9.9
20
21
0
VERTEX
8
L2D0
10
10.9
20
21
0
VERTEX
8
L2D0
10
10.9
20
20.8
0
SEQEND
0
POLYLINE
8
L2D0
70
1
40
0
41
0
66
1
0
VERTEX
8
L2D0
10
11
20
12
0
VERTEX
8
L2D0
10
11
20
12.2
0
VERTEX
8
L2D0
10
12
20
12.2
0
VERTEX
8
L2D0
10
12
20
12
0
SEQEND
0
POLYLINE
8
L2D0
70
1
40
0
41
0
66
1
0
VERTEX
8
L2D0
10
11
20
14.2
0
VERTEX
8
L2D0
10
11
20
14.4
0
VERTEX
8
L2D0
10
12
20
14.4
0
VERTEX
8
L2D0
10
12
20
14.2
0
SEQEND
0
POLYLINE
8
L2D0
70
1
40
0
41
0
66
1
0
VERTEX
8
L2D0
10
11
20
16.4
0
VERTEX
8
L2D0
10
11
20
16.6
0
VERTEX
8
L2D0
10
12
20
16.6
0
VERTEX
8
L2D0
10
12
20
16.4
0
SEQEND
0
POLYLINE
8
L2D0
70
1
40
0
41
0
66
1
0
VERTEX
8
L2D0
10
11
20
18.6
0
VERTEX
8
L2D0
10
11
20
18.8
0
VERTEX
8
L2D0
10
12
20
18.8
0
VERTEX
8
L2D0
10
12
20
18.6
0
SEQEND
0
POLYLINE
8
L2D0
70
1
40
0
41
0
66
1
0
VERTEX
8
L2D0
10
11
20
20.8
0
VERTEX
8
L2D0
10
11
20
21
0
VERTEX
8
L2D0
10
12
20
21
0
VERTEX
8
L2D0
10
12
20
20.8
0
SEQEND
0
POLYLINE
8
L2D0
70
1
40
0
41
0
66
1
0
VERTEX
8
L2D0
10
12.1
20
12
0
VERTEX
8
L2D0
10
12.1
20
12.2
0
VERTEX
8
L2D0
10
13.1
20
12.2
0
VERTEX
8
L2D0
10
13.1
20
12
0
SEQEND
0
POLYLINE
8
L2D0
70
1
40
0
41
0
66
1
0
VERTEX
8
L2D0
10
12.1
20
14.2
0
VERTEX
8
L2D0
10
12.1
20
14.4
0
VERTEX
8
L2D0
10
13.1
20
14.4
0
VERTEX
8
L2D0
10
13.1
20
14.2
0
SEQEND
0
POLYLINE
8
L2D0
70
1
40
0
41
0
66
1
0
VERTEX
8
L2D0
10
12.1
20
16.4
0
VERTEX
8
L2D0
10
12.1
20
16.6
0
VERTEX
8
L2D0
10
13.1
20
16.6
0
VERTEX
8
L2D0
10
13.1
20
16.4
0
SEQEND
0
POLYLINE
8
L2D0
70
1
40
0
41
0
66
1
0
VERTEX
8
L2D0
10
12.1
20
18.6
0
VERTEX
8
L2D0
10
12.1
20
18.8
0
VERTEX
8
L2D0
10
13.1
20
18.8
0
VERTEX
8
L2D0
10
13.1
20
18.6
0
SEQEND
0
POLYLINE
8
L2D0
70
1
40
0
41
0
66
1
0
VERTEX
8
L2D0
10
12.1
20
20.8
0
VERTEX
8
L2D0
10
12.1
20
21
0
VERTEX
8
L2D0
10
13.1
20
21
0
VERTEX
8
L2D0
10
13.1
20
20.8
0
SEQEND
0
POLYLINE
8
L2D0
70
1
40
0
41
0
66
1
0
VERTEX
8
L2D0
10
13.2
20
12
0
VERTEX
8
L2D0
10
13.2
20
12.2
0
VERTEX
8
L2D0
10
14.2
20
12.2
0
VERTEX
8
L2D0
10
14.2
20
12
0
SEQEND
0
POLYLINE
8
L2D0
70
1
40
0
41
0
66
1
0
VERTEX
8
L2D0
10
13.2
20
14.2
0
VERTEX
8
L2D0
10
13.2
20
14.4
0
VERTEX
8
L2D0
10
14.2
20
14.4
0
VERTEX
8
L2D0
10
14.2
20
14.2
0
SEQEND
0
POLYLINE
8
L2D0
70
1
40
0
41
0
66
1
0
VERTEX
8
L2D0
10
13.2
20
16.4
0
VERTEX
8
L2D0
10
13.2
20
16.6
0
VERTEX
8
L2D0
10
14.2
20
16.6
0
VERTEX
8
L2D0
10
14.2
20
16.4
0
SEQEND
0
POLYLINE
8
L2D0
70
1
40
0
41
0
66
1
0
VERTEX
8
L2D0
10
13.2
20
18.6
0
VERTEX
8
L2D0
10
13.2
20
18.8
0
VERTEX
8
L2D0
10
14.2
20
18.8
0
VERTEX
8
L2D0
10
14.2
20
18.6
0
SEQEND
0
POLYLINE
8
L2D0
70
1
40
0
41
0
66
1
0
VERTEX
8
L2D0
10
13.2
20
20.8
0
VERTEX
8
L2D0
10
13.2
20
21
0
VERTEX
8
L2D0
10
14.2
20
21
0
VERTEX
8
L2D0
10
14.2
20
20.8
0
SEQEND
0
POLYLINE
8
L2D0
70
1
40
0
41
0
66
1
0
VERTEX
8
L2D0
10
14.3
20
12
0
VERTEX
8
L2D0
10
14.3
20
12.2
0
VERTEX
8
L2D0
10
15.3
20
12.2
0
VERTEX
8
L2D0
10
15.3
20
12
0
SEQEND
0
POLYLINE
8
L2D0
70
1
40
0
41
0
66
1
0
VERTEX
8
L2D0
10
14.3
20
14.2
0
VERTEX
8
L2D0
10
14.3
20
14.4
0
VERTEX
8
L2D0
10
15.3
20
14.4
0
VERTEX
8
L2D0
10
15.3
20
14.2
0
SEQEND
0
POLYLINE
8
L2D0
70
1
40
0
41
0
66
1
0
VERTEX
8
L2D0
10
14.3
20
16.4
0
VERTEX
8
L2D0
10
14.3
20
16.6
0
VERTEX
8
L2D0
10
15.3
20
16.6
0
VERTEX
8
L2D0
10
15.3
20
16.4
0
SEQEND
0
POLYLINE
8
L2D0
70
1
40
0
41
0
66
1
0
VERTEX
8
L2D0
10
14.3
20
18.6
0
VERTEX
8
L2D0
10
14.3
20
18.8
0
VERTEX
8
L2D0
10
15.3
20
18.8
0
VERTEX
8
L2D0
10
15.3
20
18.6
0
SEQEND
0
POLYLINE
8
L2D0
70
1
40
0
41
0
66
1
0
VERTEX
8
L2D0
10
14.3
20
20.8
0
VERTEX
8
L2D0
10
14.3
20
21
0
VERTEX
8
L2D0
10
15.3
20
21
0
VERTEX
8
L2D0
10
15.3
20
20.8
0
SEQEND
0
POLYLINE
8
L2D0
70
1
40
0
41
0
66
1
0
VERTEX
8
L2D0
10
15.4
20
12
0
VERTEX
8
L2D0
10
15.4
20
12.2
0
VERTEX
8
L2D0
10
16.4
20
12.2
0
VERTEX
8
L2D0
10
16.4
20
12
0
SEQEND
0
POLYLINE
8
L2D0
70
1
40
0
41
0
66
1
0
VERTEX
8
L2D0
10
15.4
20
14.2
0
VERTEX
8
L2D0
10
15.4
20
14.4
0
VERTEX
8
L2D0
10
16.4
20
14.4
0
VERTEX
8
L2D0
10
16.4
20
14.2
0
SEQEND
0
POLYLINE
8
L2D0
70
1
40
0
41
0
66
1
0
VERTEX
8
L2D0
10
15.4
20
16.4
0
VERTEX
8
L2D0
10
15.4
20
16.6
0
VERTEX
8
L2D0
10
16.4
20
16.6
0
VERTEX
8
L2D0
10
16.4
20
16.4
0
SEQEND
0
POLYLINE
8
L2D0
70
1
40
0
41
0
66
1
0
VERTEX
8
L2D0
10
15.4
20
18.6
0
VERTEX
8
L2D0
10
15.4
20
18.8
0
VERTEX
8
L2D0
10
16.4
20
18.8
0
VERTEX
8
L2D0
10
16.4
20
18.6
0
SEQEND
0
POLYLINE
8
L2D0
70
1
40
0
41
0
66
1
0
VERTEX
8
L2D0
10
15.4
20
20.8
0
VERTEX
8
L2D0
10
15.4
20
21
0
VERTEX
8
L2D0
10
16.4
20
21
0
VERTEX
8
L2D0
10
16.4
20
20.8
0
SEQEND
0
POLYLINE
8
L2D0
70
1
40
0
41
0
66
1
0
VERTEX
8
L2D0
10
2.2
20
12
0
VERTEX
8
L2D0
10
2.2
20
12.2
0
VERTEX
8
L2D0
10
3.2
20
12.2
0
VERTEX
8
L2D0
10
3.2
20
12
0
SEQEND
0
POLYLINE
8
L2D0
70
1
40
0
41
0
66
1
0
VERTEX
8
L2D0
10
2.2
20
14.2
0
VERTEX
8
L2D0
10
2.2
20
14.4
0
VERTEX
8
L2D0
10
3.2
20
14.4
0
VERTEX
8
L2D0
10
3.2
20
14.2
0
SEQEND
0
POLYLINE
8
L2D0
70
1
40
0
41
0
66
1
0
VERTEX
8
L2D0
10
2.2
20
16.4
0
VERTEX
8
L2D0
10
2.2
20
16.6
0
VERTEX
8
L2D0
10
3.2
20
16.6
0
VERTEX
8
L2D0
10
3.2
20
16.4
0
SEQEND
0
POLYLINE
8
L2D0
70
1
40
0
41
0
66
1
0
VERTEX
8
L2D0
10
2.2
20
18.6
0
VERTEX
8
L2D0
10
2.2
20
18.8
0
VERTEX
8
L2D0
10
3.2
20
18.8
0
VERTEX
8
L2D0
10
3.2
20
18.6
0
SEQEND
0
POLYLINE
8
L2D0
70
1
40
0
41
0
66
1
0
VERTEX
8
L2D0
10
2.2
20
20.8
0
VERTEX
8
L2D0
10
2.2
20
21
0
VERTEX
8
L2D0
10
3.2
20
21
0
VERTEX
8
L2D0
10
3.2
20
20.8
0
SEQEND
0
POLYLINE
8
L2D0
70
1
40
0
41
0
66
1
0
VERTEX
8
L2D0
10
3.3
20
12
0
VERTEX
8
L2D0
10
3.3
20
12.2
0
VERTEX
8
L2D0
10
4.3
20
12.2
0
VERTEX
8
L2D0
10
4.3
20
12
0
SEQEND
0
POLYLINE
8
L2D0
70
1
40
0
41
0
66
1
0
VERTEX
8
L2D0
10
3.3
20
14.2
0
VERTEX
8
L2D0
10
3.3
20
14.4
0
VERTEX
8
L2D0
10
4.3
20
14.4
0
VERTEX
8
L2D0
10
4.3
20
14.2
0
SEQEND
0
POLYLINE
8
L2D0
70
1
40
0
41
0
66
1
0
VERTEX
8
L2D0
10
3.3
20
16.4
0
VERTEX
8
L2D0
10
3.3
20
16.6
0
VERTEX
8
L2D0
10
4.3
20
16.6
0
VERTEX
8
L2D0
10
4.3
20
16.4
0
SEQEND
0
POLYLINE
8
L2D0
70
1
40
0
41
0
66
1
0
VERTEX
8
L2D0
10
3.3
20
18.6
0
VERTEX
8
L2D0
10
3.3
20
18.8
0
VERTEX
8
L2D0
10
4.3
20
18.8
0
VERTEX
8
L2D0
10
4.3
20
18.6
0
SEQEND
0
POLYLINE
8
L2D0
70
1
40
0
41
0
66
1
0
VERTEX
8
L2D0
10
3.3
20
20.8
0
VERTEX
8
L2D0
10
3.3
20
21
0
VERTEX
8
L2D0
10
4.3
20
21
0
VERTEX
8
L2D0
10
4.3
20
20.8
0
SEQEND
0
POLYLINE
8
L2D0
70
1
40
0
41
0
66
1
0
VERTEX
8
L2D0
10
4.4
20
12
0
VERTEX
8
L2D0
10
4.4
20
12.2
0
VERTEX
8
L2D0
10
5.4
20
12.2
0
VERTEX
8
L2D0
10
5.4
20
12
0
SEQEND
0
POLYLINE
8
L2D0
70
1
40
0
41
0
66
1
0
VERTEX
8
L2D0
10
4.4
20
14.2
0
VERTEX
8
L2D0
10
4.4
20
14.4
0
VERTEX
8
L2D0
10
5.4
20
14.4
0
VERTEX
8
L2D0
10
5.4
20
14.2
0
SEQEND
0
POLYLINE
8
L2D0
70
1
40
0
41
0
66
1
0
VERTEX
8
L2D0
10
4.4
20
16.4
0
VERTEX
8
L2D0
10
4.4
20
16.6
0
VERTEX
8
L2D0
10
5.4
20
16.6
0
VERTEX
8
L2D0
10
5.4
20
16.4
0
SEQEND
0
POLYLINE
8
L2D0
70
1
40
0
41
0
66
1
0
VERTEX
8
L2D0
10
4.4
20
18.6
0
VERTEX
8
L2D0
10
4.4
20
18.8
0
VERTEX
8
L2D0
10
5.4
20
18.8
0
VERTEX
8
L2D0
10
5.4
20
18.6
0
SEQEND
0
POLYLINE
8
L2D0
70
1
40
0
41
0
66
1
0
VERTEX
8
L2D0
10
4.4
20
20.8
0
VERTEX
8
L2D0
10
4.4
20
21
0
VERTEX
8
L2D0
10
5.4
20
21
0
VERTEX
8
L2D0
10
5.4
20
20.8
0
SEQEND
0
POLYLINE
8
L2D0
70
1
40
0
41
0
66
1
0
VERTEX
8
L2D0
10
5.5
20
12
0
VERTEX
8
L2D0
10
5.5
20
12.2
0
VERTEX
8
L2D0
10
6.5
20
12.2
0
VERTEX
8
L2D0
10
6.5
20
12
0
SEQEND
0
POLYLINE
8
L2D0
70
1
40
0
41
0
66
1
0
VERTEX
8
L2D0
10
5.5
20
14.2
0
VERTEX
8
L2D0
10
5.5
20
14.4
0
VERTEX
8
L2D0
10
6.5
20
14.4
0
VERTEX
8
L2D0
10
6.5
20
14.2
0
SEQEND
0
POLYLINE
8
L2D0
70
1
40
0
41
0
66
1
0
VERTEX
8
L2D0
10
5.5
20
16.4
0
VERTEX
8
L2D0
10
5.5
20
16.6
0
VERTEX
8
L2D0
10
6.5
20
16.6
0
VERTEX
8
L2D0
10
6.5
20
16.4
0
SEQEND
0
POLYLINE
8
L2D0
70
1
40
0
41
0
66
1
0
VERTEX
8
L2D0
10
5.5
20
18.6
0
VERTEX
8
L2D0
10
5.5
20
18.8
0
VERTEX
8
L2D0
10
6.5
20
18.8
0
VERTEX
8
L2D0
10
6.5
20
18.6
0
SEQEND
0
POLYLINE
8
L2D0
70
1
40
0
41
0
66
1
0
VERTEX
8
L2D0
10
5.5
20
20.8
0
VERTEX
8
L2D0
10
5.5
20
21
0
VERTEX
8
L2D0
10
6.5
20
21
0
VERTEX
8
L2D0
10
6.5
20
20.8
0
SEQEND
0
POLYLINE
8
L2D0
70
1
40
0
41
0
66
1
0
VERTEX
8
L2D0
10
6.6
20
12
0
VERTEX
8
L2D0
10
6.6
20
12.2
0
VERTEX
8
L2D0
10
7.6
20
12.2
0
VERTEX
8
L2D0
10
7.6
20
12
0
SEQEND
0
POLYLINE
8
L2D0
70
1
40
0
41
0
66
1
0
VERTEX
8
L2D0
10
6.6
20
14.2
0
VERTEX
8
L2D0
10
6.6
20
14.4
0
VERTEX
8
L2D0
10
7.6
20
14.4
0
VERTEX
8
L2D0
10
7.6
20
14.2
0
SEQEND
0
POLYLINE
8
L2D0
70
1
40
0
41
0
66
1
0
VERTEX
8
L2D0
10
6.6
20
16.4
0
VERTEX
8
L2D0
10
6.6
20
16.6
0
VERTEX
8
L2D0
10
7.6
20
16.6
0
VERTEX
8
L2D0
10
7.6
20
16.4
0
SEQEND
0
POLYLINE
8
L2D0
70
1
40
0
41
0
66
1
0
VERTEX
8
L2D0
10
6.6
20
18.6
0
VERTEX
8
L2D0
10
6.6
20
18.8
0
VERTEX
8
L2D0
10
7.6
20
18.8
0
VERTEX
8
L2D0
10
7.6
20
18.6
0
SEQEND
0
POLYLINE
8
L2D0
70
1
40
0
41
0
66
1
0
VERTEX
8
L2D0
10
6.6
20
20.8
0
VERTEX
8
L2D0
10
6.6
20
21
0
VERTEX
8
L2D0
10
7.6
20
21
0
VERTEX
8
L2D0
10
7.6
20
20.8
0
SEQEND
0
POLYLINE
8
L2D0
70
1
40
0
41
0
66
1
0
VERTEX
8
L2D0
10
0
20
12
0
VERTEX
8
L2D0
10
0
20
12.2
0
VERTEX
8
L2D0
10
1
20
12.2
0
VERTEX
8
L2D0
10
1
20
12
0
SEQEND
0
POLYLINE
8
L2D0
70
1
40
0
41
0
66
1
0
VERTEX
8
L2D0
10
0
20
14.2
0
VERTEX
8
L2D0
10
0
20
14.4
0
VERTEX
8
L2D0
10
1
20
14.4
0
VERTEX
8
L2D0
10
1
20
14.2
0
SEQEND
0
POLYLINE
8
L2D0
70
1
40
0
41
0
66
1
0
VERTEX
8
L2D0
10
0
20
16.4
0
VERTEX
8
L2D0
10
0
20
16.6
0
VERTEX
8
L2D0
10
1
20
16.6
0
VERTEX
8
L2D0
10
1
20
16.4
0
SEQEND
0
POLYLINE
8
L2D0
70
1
40
0
41
0
66
1
0
VERTEX
8
L2D0
10
0
20
18.6
0
VERTEX
8
L2D0
10
0
20
18.8
0
VERTEX
8
L2D0
10
1
20
18.8
0
VERTEX
8
L2D0
10
1
20
18.6
0
SEQEND
0
POLYLINE
8
L2D0
70
1
40
0
41
0
66
1
0
VERTEX
8
L2D0
10
0
20
20.8
0
VERTEX
8
L2D0
10
0
20
21
0
VERTEX
8
L2D0
10
1
20
21
0
VERTEX
8
L2D0
10
1
20
20.8
0
SEQEND
0
POLYLINE
8
L2D0
70
1
40
0
41
0
66
1
0
VERTEX
8
L2D0
10
1.1
20
12
0
VERTEX
8
L2D0
10
1.1
20
12.2
0
VERTEX
8
L2D0
10
2.1
20
12.2
0
VERTEX
8
L2D0
10
2.1
20
12
0
SEQEND
0
POLYLINE
8
L2D0
70
1
40
0
41
0
66
1
0
VERTEX
8
L2D0
10
1.1
20
14.2
0
VERTEX
8
L2D0
10
1.1
20
14.4
0
VERTEX
8
L2D0
10
2.1
20
14.4
0
VERTEX
8
L2D0
10
2.1
20
14.2
0
SEQEND
0
POLYLINE
8
L2D0
70
1
40
0
41
0
66
1
0
VERTEX
8
L2D0
10
1.1
20
16.4
0
VERTEX
8
L2D0
10
1.1
20
16.6
0
VERTEX
8
L2D0
10
2.1
20
16.6
0
VERTEX
8
L2D0
10
2.1
20
16.4
0
SEQEND
0
POLYLINE
8
L2D0
70
1
40
0
41
0
66
1
0
VERTEX
8
L2D0
10
1.1
20
18.6
0
VERTEX
8
L2D0
10
1.1
20
18.8
0
VERTEX
8
L2D0
10
2.1
20
18.8
0
VERTEX
8
L2D0
10
2.1
20
18.6
0
SEQEND
0
POLYLINE
8
L2D0
70
1
40
0
41
0
66
1
0
VERTEX
8
L2D0
10
1.1
20
20.8
0
VERTEX
8
L2D0
10
1.1
20
21
0
VERTEX
8
L2D0
10
2.1
20
21
0
VERTEX
8
L2D0
10
2.1
20
20.8
0
SEQEND
0
POLYLINE
8
L2D0
70
1
40
0
41
0
66
1
0
VERTEX
8
L2D0
10
2.2
20
1
0
VERTEX
8
L2D0
10
2.2
20
1.2
0
VERTEX
8
L2D0
10
3.2
20
1.2
0
VERTEX
8
L2D0
10
3.2
20
1
0
SEQEND
0
POLYLINE
8
L2D0
70
1
40
0
41
0
66
1
0
VERTEX
8
L2D0
10
2.2
20
3.2
0
VERTEX
8
L2D0
10
2.2
20
3.4
0
VERTEX
8
L2D0
10
3.2
20
3.4
0
VERTEX
8
L2D0
10
3.2
20
3.2
0
SEQEND
0
POLYLINE
8
L2D0
70
1
40
0
41
0
66
1
0
VERTEX
8
L2D0
10
2.2
20
5.4
0
VERTEX
8
L2D0
10
2.2
20
5.6
0
VERTEX
8
L2D0
10
3.2
20
5.6
0
VERTEX
8
L2D0
10
3.2
20
5.4
0
SEQEND
0
POLYLINE
8
L2D0
70
1
40
0
41
0
66
1
0
VERTEX
8
L2D0
10
2.2
20
7.6
0
VERTEX
8
L2D0
10
2.2
20
7.8
0
VERTEX
8
L2D0
10
3.2
20
7.8
0
VERTEX
8
L2D0
10
3.2
20
7.6
0
SEQEND
0
POLYLINE
8
L2D0
70
1
40
0
41
0
66
1
0
VERTEX
8
L2D0
10
2.2
20
9.8
0
VERTEX
8
L2D0
10
2.2
20
10
0
VERTEX
8
L2D0
10
3.2
20
10
0
VERTEX
8
L2D0
10
3.2
20
9.8
0
SEQEND
0
POLYLINE
8
L2D0
70
1
40
0
41
0
66
1
0
VERTEX
8
L2D0
10
5.5
20
1
0
VERTEX
8
L2D0
10
5.5
20
1.2
0
VERTEX
8
L2D0
10
6.5
20
1.2
0
VERTEX
8
L2D0
10
6.5
20
1
0
SEQEND
0
POLYLINE
8
L2D0
70
1
40
0
41
0
66
1
0
VERTEX
8
L2D0
10
5.5
20
3.2
0
VERTEX
8
L2D0
10
5.5
20
3.4
0
VERTEX
8
L2D0
10
6.5
20
3.4
0
VERTEX
8
L2D0
10
6.5
20
3.2
0
SEQEND
0
POLYLINE
8
L2D0
70
1
40
0
41
0
66
1
0
VERTEX
8
L2D0
10
5.5
20
5.4
0
VERTEX
8
L2D0
10
5.5
20
5.6
0
VERTEX
8
L2D0
10
6.5
20
5.6
0
VERTEX
8
L2D0
10
6.5
20
5.4
0
SEQEND
0
POLYLINE
8
L2D0
70
1
40
0
41
0
66
1
0
VERTEX
8
L2D0
10
5.5
20
7.6
0
VERTEX
8
L2D0
10
5.5
20
7.8
0
VERTEX
8
L2D0
10
6.5
20
7.8
0
VERTEX
8
L2D0
10
6.5
20
7.6
0
SEQEND
0
POLYLINE
8
L2D0
70
1
40
0
41
0
66
1
0
VERTEX
8
L2D0
10
5.5
20
9.8
0
VERTEX
8
L2D0
10
5.5
20
10
0
VERTEX
8
L2D0
10
6.5
20
10
0
VERTEX
8
L2D0
10
6.5
20
9.8
0
SEQEND
0
POLYLINE
8
L2D0
70
1
40
0
41
0
66
1
0
VERTEX
8
L2D0
10
1.1
20
1
0
VERTEX
8
L2D0
10
1.1
20
1.2
0
VERTEX
8
L2D0
10
2.1
20
1.2
0
VERTEX
8
L2D0
10
2.1
20
1
0
SEQEND
0
POLYLINE
8
L2D0
70
1
40
0
41
0
66
1
0
VERTEX
8
L2D0
10
1.1
20
3.2
0
VERTEX
8
L2D0
10
1.1
20
3.4
0
VERTEX
8
L2D0
10
2.1
20
3.4
0
VERTEX
8
L2D0
10
2.1
20
3.2
0
SEQEND
0
POLYLINE
8
L2D0
70
1
40
0
41
0
66
1
0
VERTEX
8
L2D0
10
1.1
20
5.4
0
VERTEX
8
L2D0
10
1.1
20
5.6
0
VERTEX
8
L2D0
10
2.1
20
5.6
0
VERTEX
8
L2D0
10
2.1
20
5.4
0
SEQEND
0
POLYLINE
8
L2D0
70
1
40
0
41
0
66
1
0
VERTEX
8
L2D0
10
1.1
20
7.6
0
VERTEX
8
L2D0
10
1.1
20
7.8
0
VERTEX
8
L2D0
10
2.1
20
7.8
0
VERTEX
8
L2D0
10
2.1
20
7.6
0
SEQEND
0
POLYLINE
8
L2D0
70
1
40
0
41
0
66
1
0
VERTEX
8
L2D0
10
1.1
20
9.8
0
VERTEX
8
L2D0
10
1.1
20
10
0
VERTEX
8
L2D0
10
2.1
20
10
0
VERTEX
8
L2D0
10
2.1
20
9.8
0
SEQEND
0
POLYLINE
8
L2D0
70
1
40
0
41
0
66
1
0
VERTEX
8
L2D0
10
6.6
20
1
0
VERTEX
8
L2D0
10
6.6
20
1.2
0
VERTEX
8
L2D0
10
7.6
20
1.2
0
VERTEX
8
L2D0
10
7.6
20
1
0
SEQEND
0
POLYLINE
8
L2D0
70
1
40
0
41
0
66
1
0
VERTEX
8
L2D0
10
6.6
20
3.2
0
VERTEX
8
L2D0
10
6.6
20
3.4
0
VERTEX
8
L2D0
10
7.6
20
3.4
0
VERTEX
8
L2D0
10
7.6
20
3.2
0
SEQEND
0
POLYLINE
8
L2D0
70
1
40
0
41
0
66
1
0
VERTEX
8
L2D0
10
6.6
20
5.4
0
VERTEX
8
L2D0
10
6.6
20
5.6
0
VERTEX
8
L2D0
10
7.6
20
5.6
0
VERTEX
8
L2D0
10
7.6
20
5.4
0
SEQEND
0
POLYLINE
8
L2D0
70
1
40
0
41
0
66
1
0
VERTEX
8
L2D0
10
6.6
20
7.6
0
VERTEX
8
L2D0
10
6.6
20
7.8
0
VERTEX
8
L2D0
10
7.6
20
7.8
0
VERTEX
8
L2D0
10
7.6
20
7.6
0
SEQEND
0
POLYLINE
8
L2D0
70
1
40
0
41
0
66
1
0
VERTEX
8
L2D0
10
6.6
20
9.8
0
VERTEX
8
L2D0
10
6.6
20
10
0
VERTEX
8
L2D0
10
7.6
20
10
0
VERTEX
8
L2D0
10
7.6
20
9.8
0
SEQEND
0
POLYLINE
8
L2D0
70
1
40
0
41
0
66
1
0
VERTEX
8
L2D0
10
3.3
20
1
0
VERTEX
8
L2D0
10
3.3
20
1.2
0
VERTEX
8
L2D0
10
4.3
20
1.2
0
VERTEX
8
L2D0
10
4.3
20
1
0
SEQEND
0
POLYLINE
8
L2D0
70
1
40
0
41
0
66
1
0
VERTEX
8
L2D0
10
3.3
20
3.2
0
VERTEX
8
L2D0
10
3.3
20
3.4
0
VERTEX
8
L2D0
10
4.3
20
3.4
0
VERTEX
8
L2D0
10
4.3
20
3.2
0
SEQEND
0
POLYLINE
8
L2D0
70
1
40
0
41
0
66
1
0
VERTEX
8
L2D0
10
3.3
20
5.4
0
VERTEX
8
L2D0
10
3.3
20
5.6
0
VERTEX
8
L2D0
10
4.3
20
5.6
0
VERTEX
8
L2D0
10
4.3
20
5.4
0
SEQEND
0
POLYLINE
8
L2D0
70
1
40
0
41
0
66
1
0
VERTEX
8
L2D0
10
3.3
20
7.6
0
VERTEX
8
L2D0
10
3.3
20
7.8
0
VERTEX
8
L2D0
10
4.3
20
7.8
0
VERTEX
8
L2D0
10
4.3
20
7.6
0
SEQEND
0
POLYLINE
8
L2D0
70
1
40
0
41
0
66
1
0
VERTEX
8
L2D0
10
3.3
20
9.8
0
VERTEX
8
L2D0
10
3.3
20
10
0
VERTEX
8
L2D0
10
4.3
20
10
0
VERTEX
8
L2D0
10
4.3
20
9.8
0
SEQEND
0
POLYLINE
8
L2D0
70
1
40
0
41
0
66
1
0
VERTEX
8
L2D0
10
0
20
1
0
VERTEX
8
L2D0
10
0
20
1.2
0
VERTEX
8
L2D0
10
1
20
1.2
0
VERTEX
8
L2D0
10
1
20
1
0
SEQEND
0
POLYLINE
8
L2D0
70
1
40
0
41
0
66
1
0
VERTEX
8
L2D0
10
0
20
3.2
0
VERTEX
8
L2D0
10
0
20
3.4
0
VERTEX
8
L2D0
10
1
20
3.4
0
VERTEX
8
L2D0
10
1
20
3.2
0
SEQEND
0
POLYLINE
8
L2D0
70
1
40
0
41
0
66
1
0
VERTEX
8
L2D0
10
0
20
5.4
0
VERTEX
8
L2D0
10
0
20
5.6
0
VERTEX
8
L2D0
10
1
20
5.6
0
VERTEX
8
L2D0
10
1
20
5.4
0
SEQEND
0
POLYLINE
8
L2D0
70
1
40
0
41
0
66
1
0
VERTEX
8
L2D0
10
0
20
7.6
0
VERTEX
8
L2D0
10
0
20
7.8
0
VERTEX
8
L2D0
10
1
20
7.8
0
VERTEX
8
L2D0
10
1
20
7.6
0
SEQEND
0
POLYLINE
8
L2D0
70
1
40
0
41
0
66
1
0
VERTEX
8
L2D0
10
0
20
9.8
0
VERTEX
8
L2D0
10
0
20
10
0
VERTEX
8
L2D0
10
1
20
10
0
VERTEX
8
L2D0
10
1
20
9.8
0
SEQEND
0
POLYLINE
8
L2D0
70
1
40
0
41
0
66
1
0
VERTEX
8
L2D0
10
4.4
20
1
0
VERTEX
8
L2D0
10
4.4
20
1.2
0
VERTEX
8
L2D0
10
5.4
20
1.2
0
VERTEX
8
L2D0
10
5.4
20
1
0
SEQEND
0
POLYLINE
8
L2D0
70
1
40
0
41
0
66
1
0
VERTEX
8
L2D0
10
4.4
20
3.2
0
VERTEX
8
L2D0
10
4.4
20
3.4
0
VERTEX
8
L2D0
10
5.4
20
3.4
0
VERTEX
8
L2D0
10
5.4
20
3.2
0
SEQEND
0
POLYLINE
8
L2D0
70
1
40
0
41
0
66
1
0
VERTEX
8
L2D0
10
4.4
20
5.4
0
VERTEX
8
L2D0
10
4.4
20
5.6
0
VERTEX
8
L2D0
10
5.4
20
5.6
0
VERTEX
8
L2D0
10
5.4
20
5.4
0
SEQEND
0
POLYLINE
8
L2D0
70
1
40
0
41
0
66
1
0
VERTEX
8
L2D0
10
4.4
20
7.6
0
VERTEX
8
L2D0
10
4.4
20
7.8
0
VERTEX
8
L2D0
10
5.4
20
7.8
0
VERTEX
8
L2D0
10
5.4
20
7.6
0
SEQEND
0
POLYLINE
8
L2D0
70
1
40
0
41
0
66
1
0
VERTEX
8
L2D0
10
4.4
20
9.8
0
VERTEX
8
L2D0
10
4.4
20
10
0
VERTEX
8
L2D0
10
5.4
20
10
0
VERTEX
8
L2D0
10
5.4
20
9.8
0
SEQEND
0
POLYLINE
8
L2D0
70
1
40
0
41
0
66
1
0
VERTEX
8
L2D0
10
8.8
20
1
0
VERTEX
8
L2D0
10
8.8
20
1.2
0
VERTEX
8
L2D0
10
9.8
20
1.2
0
VERTEX
8
L2D0
10
9.8
20
1
0
SEQEND
0
POLYLINE
8
L2D0
70
1
40
0
41
0
66
1
0
VERTEX
8
L2D0
10
8.8
20
3.2
0
VERTEX
8
L2D0
10
8.8
20
3.4
0
VERTEX
8
L2D0
10
9.8
20
3.4
0
VERTEX
8
L2D0
10
9.8
20
3.2
0
SEQEND
0
POLYLINE
8
L2D0
70
1
40
0
41
0
66
1
0
VERTEX
8
L2D0
10
8.8
20
5.4
0
VERTEX
8
L2D0
10
8.8
20
5.6
0
VERTEX
8
L2D0
10
9.8
20
5.6
0
VERTEX
8
L2D0
10
9.8
20
5.4
0
SEQEND
0
POLYLINE
8
L2D0
70
1
40
0
41
0
66
1
0
VERTEX
8
L2D0
10
8.8
20
7.6
0
VERTEX
8
L2D0
10
8.8
20
7.8
0
VERTEX
8
L2D0
10
9.8
20
7.8
0
VERTEX
8
L2D0
10
9.8
20
7.6
0
SEQEND
0
POLYLINE
8
L2D0
70
1
40
0
41
0
66
1
0
VERTEX
8
L2D0
10
8.8
20
9.8
0
VERTEX
8
L2D0
10
8.8
20
10
0
VERTEX
8
L2D0
10
9.8
20
10
0
VERTEX
8
L2D0
10
9.8
20
9.8
0
SEQEND
0
POLYLINE
8
L2D0
70
1
40
0
41
0
66
1
0
VERTEX
8
L2D0
10
13.2
20
1
0
VERTEX
8
L2D0
10
13.2
20
1.2
0
VERTEX
8
L2D0
10
14.2
20
1.2
0
VERTEX
8
L2D0
10
14.2
20
1
0
SEQEND
0
POLYLINE
8
L2D0
70
1
40
0
41
0
66
1
0
VERTEX
8
L2D0
10
13.2
20
3.2
0
VERTEX
8
L2D0
10
13.2
20
3.4
0
VERTEX
8
L2D0
10
14.2
20
3.4
0
VERTEX
8
L2D0
10
14.2
20
3.2
0
SEQEND
0
POLYLINE
8
L2D0
70
1
40
0
41
0
66
1
0
VERTEX
8
L2D0
10
13.2
20
5.4
0
VERTEX
8
L2D0
10
13.2
20
5.6
0
VERTEX
8
L2D0
10
14.2
20
5.6
0
VERTEX
8
L2D0
10
14.2
20
5.4
0
SEQEND
0
POLYLINE
8
L2D0
70
1
40
0
41
0
66
1
0
VERTEX
8
L2D0
10
13.2
20
7.6
0
VERTEX
8
L2D0
10
13.2
20
7.8
0
VERTEX
8
L2D0
10
14.2
20
7.8
0
VERTEX
8
L2D0
10
14.2
20
7.6
0
SEQEND
0
POLYLINE
8
L2D0
70
1
40
0
41
0
66
1
0
VERTEX
8
L2D0
10
13.2
20
9.8
0
VERTEX
8
L2D0
10
13.2
20
10
0
VERTEX
8
L2D0
10
14.2
20
10
0
VERTEX
8
L2D0
10
14.2
20
9.8
0
SEQEND
0
POLYLINE
8
L2D0
70
1
40
0
41
0
66
1
0
VERTEX
8
L2D0
10
11
20
1
0
VERTEX
8
L2D0
10
11
20
1.2
0
VERTEX
8
L2D0
10
12
20
1.2
0
VERTEX
8
L2D0
10
12
20
1
0
SEQEND
0
POLYLINE
8
L2D0
70
1
40
0
41
0
66
1
0
VERTEX
8
L2D0
10
11
20
3.2
0
VERTEX
8
L2D0
10
11
20
3.4
0
VERTEX
8
L2D0
10
12
20
3.4
0
VERTEX
8
L2D0
10
12
20
3.2
0
SEQEND
0
POLYLINE
8
L2D0
70
1
40
0
41
0
66
1
0
VERTEX
8
L2D0
10
11
20
5.4
0
VERTEX
8
L2D0
10
11
20
5.6
0
VERTEX
8
L2D0
10
12
20
5.6
0
VERTEX
8
L2D0
10
12
20
5.4
0
SEQEND
0
POLYLINE
8
L2D0
70
1
40
0
41
0
66
1
0
VERTEX
8
L2D0
10
11
20
7.6
0
VERTEX
8
L2D0
10
11
20
7.8
0
VERTEX
8
L2D0
10
12
20
7.8
0
VERTEX
8
L2D0
10
12
20
7.6
0
SEQEND
0
POLYLINE
8
L2D0
70
1
40
0
41
0
66
1
0
VERTEX
8
L2D0
10
11
20
9.8
0
VERTEX
8
L2D0
10
11
20
10
0
VERTEX
8
L2D0
10
12
20
10
0
VERTEX
8
L2D0
10
12
20
9.8
0
SEQEND
0
POLYLINE
8
L2D0
70
1
40
0
41
0
66
1
0
VERTEX
8
L2D0
10
14.3
20
1
0
VERTEX
8
L2D0
10
14.3
20
1.2
0
VERTEX
8
L2D0
10
15.3
20
1.2
0
VERTEX
8
L2D0
10
15.3
20
1
0
SEQEND
0
POLYLINE
8
L2D0
70
1
40
0
41
0
66
1
0
VERTEX
8
L2D0
10
14.3
20
3.2
0
VERTEX
8
L2D0
10
14.3
20
3.4
0
VERTEX
8
L2D0
10
15.3
20
3.4
0
VERTEX
8
L2D0
10
15.3
20
3.2
0
SEQEND
0
POLYLINE
8
L2D0
70
1
40
0
41
0
66
1
0
VERTEX
8
L2D0
10
14.3
20
5.4
0
VERTEX
8
L2D0
10
14.3
20
5.6
0
VERTEX
8
L2D0
10
15.3
20
5.6
0
VERTEX
8
L2D0
10
15.3
20
5.4
0
SEQEND
0
POLYLINE
8
L2D0
70
1
40
0
41
0
66
1
0
VERTEX
8
L2D0
10
14.3
20
7.6
0
VERTEX
8
L2D0
10
14.3
20
7.8
0
VERTEX
8
L2D0
10
15.3
20
7.8
0
VERTEX
8
L2D0
10
15.3
20
7.6
0
SEQEND
0
POLYLINE
8
L2D0
70
1
40
0
41
0
66
1
0
VERTEX
8
L2D0
10
14.3
20
9.8
0
VERTEX
8
L2D0
10
14.3
20
10
0
VERTEX
8
L2D0
10
15.3
20
10
0
VERTEX
8
L2D0
10
15.3
20
9.8
0
SEQEND
0
POLYLINE
8
L2D0
70
1
40
0
41
0
66
1
0
VERTEX
8
L2D0
10
9.9
20
1
0
VERTEX
8
L2D0
10
9.9
20
1.2
0
VERTEX
8
L2D0
10
10.9
20
1.2
0
VERTEX
8
L2D0
10
10.9
20
1
0
SEQEND
0
POLYLINE
8
L2D0
70
1
40
0
41
0
66
1
0
VERTEX
8
L2D0
10
9.9
20
3.2
0
VERTEX
8
L2D0
10
9.9
20
3.4
0
VERTEX
8
L2D0
10
10.9
20
3.4
0
VERTEX
8
L2D0
10
10.9
20
3.2
0
SEQEND
0
POLYLINE
8
L2D0
70
1
40
0
41
0
66
1
0
VERTEX
8
L2D0
10
9.9
20
5.4
0
VERTEX
8
L2D0
10
9.9
20
5.6
0
VERTEX
8
L2D0
10
10.9
20
5.6
0
VERTEX
8
L2D0
10
10.9
20
5.4
0
SEQEND
0
POLYLINE
8
L2D0
70
1
40
0
41
0
66
1
0
VERTEX
8
L2D0
10
9.9
20
7.6
0
VERTEX
8
L2D0
10
9.9
20
7.8
0
VERTEX
8
L2D0
10
10.9
20
7.8
0
VERTEX
8
L2D0
10
10.9
20
7.6
0
SEQEND
0
POLYLINE
8
L2D0
70
1
40
0
41
0
66
1
0
VERTEX
8
L2D0
10
9.9
20
9.8
0
VERTEX
8
L2D0
10
9.9
20
10
0
VERTEX
8
L2D0
10
10.9
20
10
0
VERTEX
8
L2D0
10
10.9
20
9.8
0
SEQEND
0
POLYLINE
8
L2D0
70
1
40
0
41
0
66
1
0
VERTEX
8
L2D0
10
15.4
20
1
0
VERTEX
8
L2D0
10
15.4
20
1.2
0
VERTEX
8
L2D0
10
16.4
20
1.2
0
VERTEX
8
L2D0
10
16.4
20
1
0
SEQEND
0
POLYLINE
8
L2D0
70
1
40
0
41
0
66
1
0
VERTEX
8
L2D0
10
15.4
20
3.2
0
VERTEX
8
L2D0
10
15.4
20
3.4
0
VERTEX
8
L2D0
10
16.4
20
3.4
0
VERTEX
8
L2D0
10
16.4
20
3.2
0
SEQEND
0
POLYLINE
8
L2D0
70
1
40
0
41
0
66
1
0
VERTEX
8
L2D0
10
15.4
20
5.4
0
VERTEX
8
L2D0
10
15.4
20
5.6
0
VERTEX
8
L2D0
10
16.4
20
5.6
0
VERTEX
8
L2D0
10
16.4
20
5.4
0
SEQEND
0
POLYLINE
8
L2D0
70
1
40
0
41
0
66
1
0
VERTEX
8
L2D0
10
15.4
20
7.6
0
VERTEX
8
L2D0
10
15.4
20
7.8
0
VERTEX
8
L2D0
10
16.4
20
7.8
0
VERTEX
8
L2D0
10
16.4
20
7.6
0
SEQEND
0
POLYLINE
8
L2D0
70
1
40
0
41
0
66
1
0
VERTEX
8
L2D0
10
15.4
20
9.8
0
VERTEX
8
L2D0
10
15.4
20
10
0
VERTEX
8
L2D0
10
16.4
20
10
0
VERTEX
8
L2D0
10
16.4
20
9.8
0
SEQEND
0
POLYLINE
8
L2D0
70
1
40
0
41
0
66
1
0
VERTEX
8
L2D0
10
12.1
20
1
0
VERTEX
8
L2D0
10
12.1
20
1.2
0
VERTEX
8
L2D0
10
13.1
20
1.2
0
VERTEX
8
L2D0
10
13.1
20
1
0
SEQEND
0
POLYLINE
8
L2D0
70
1
40
0
41
0
66
1
0
VERTEX
8
L2D0
10
12.1
20
3.2
0
VERTEX
8
L2D0
10
12.1
20
3.4
0
VERTEX
8
L2D0
10
13.1
20
3.4
0
VERTEX
8
L2D0
10
13.1
20
3.2
0
SEQEND
0
POLYLINE
8
L2D0
70
1
40
0
41
0
66
1
0
VERTEX
8
L2D0
10
12.1
20
5.4
0
VERTEX
8
L2D0
10
12.1
20
5.6
0
VERTEX
8
L2D0
10
13.1
20
5.6
0
VERTEX
8
L2D0
10
13.1
20
5.4
0
SEQEND
0
POLYLINE
8
L2D0
70
1
40
0
41
0
66
1
0
VERTEX
8
L2D0
10
12.1
20
7.6
0
VERTEX
8
L2D0
10
12.1
20
7.8
0
VERTEX
8
L2D0
10
13.1
20
7.8
0
VERTEX
8
L2D0
10
13.1
20
7.6
0
SEQEND
0
POLYLINE
8
L2D0
70
1
40
0
41
0
66
1
0
VERTEX
8
L2D0
10
12.1
20
9.8
0
VERTEX
8
L2D0
10
12.1
20
10
0
VERTEX
8
L2D0
10
13.1
20
10
0
VERTEX
8
L2D0
10
13.1
20
9.8
0
SEQEND
0
ENDSEC
0
EOF
