0
SECTION
2
HEADER
9
$ACADVER
1
AC1006
0
ENDSEC
0
SECTION
2
TABLES
0
TABLE
2
LAYER
70
1
0
LAYER
70
0
62
1
6
CONTINUOUS
2
L1D0
0
ENDTAB
0
ENDSEC
0
SECTION
2
BLOCKS
0
ENDSEC
0
SECTION
2
ENTITIES
0
POLYLINE
8
L1D0
70
1
40
0
41
0
66
1
0
VERTEX
8
L1D0
10
-30
20
174
0
VERTEX
8
L1D0
10
-30
20
194
0
VERTEX
8
L1D0
10
10
20
194
0
VERTEX
8
L1D0
10
10
20
174
0
SEQEND
0
POLYLINE
8
L1D0
70
1
40
0
41
0
66
1
0
VERTEX
8
L1D0
10
14
20
174
0
VERTEX
8
L1D0
10
14
20
194
0
VERTEX
8
L1D0
10
54
20
194
0
VERTEX
8
L1D0
10
54
20
174
0
SEQEND
0
POLYLINE
8
L1D0
70
1
40
0
41
0
66
1
0
VERTEX
8
L1D0
10
58
20
174
0
VERTEX
8
L1D0
10
58
20
194
0
VERTEX
8
L1D0
10
98
20
194
0
VERTEX
8
L1D0
10
98
20
174
0
SEQEND
0
POLYLINE
8
L1D0
70
1
40
0
41
0
66
1
0
VERTEX
8
L1D0
10
102
20
174
0
VERTEX
8
L1D0
10
102
20
194
0
VERTEX
8
L1D0
10
142
20
194
0
VERTEX
8
L1D0
10
142
20
174
0
SEQEND
0
POLYLINE
8
L1D0
70
1
40
0
41
0
66
1
0
VERTEX
8
L1D0
10
146
20
174
0
VERTEX
8
L1D0
10
146
20
194
0
VERTEX
8
L1D0
10
186
20
194
0
VERTEX
8
L1D0
10
186
20
174
0
SEQEND
0
POLYLINE
8
L1D0
70
1
40
0
41
0
66
1
0
VERTEX
8
L1D0
10
190
20
174
0
VERTEX
8
L1D0
10
190
20
194
0
VERTEX
8
L1D0
10
230
20
194
0
VERTEX
8
L1D0
10
230
20
174
0
SEQEND
0
POLYLINE
8
L1D0
70
1
40
0
41
0
66
1
0
VERTEX
8
L1D0
10
234
20
174
0
VERTEX
8
L1D0
10
234
20
194
0
VERTEX
8
L1D0
10
274
20
194
0
VERTEX
8
L1D0
10
274
20
174
0
SEQEND
0
POLYLINE
8
L1D0
70
1
40
0
41
0
66
1
0
VERTEX
8
L1D0
10
278
20
174
0
VERTEX
8
L1D0
10
278
20
194
0
VERTEX
8
L1D0
10
318
20
194
0
VERTEX
8
L1D0
10
318
20
174
0
SEQEND
0
POLYLINE
8
L1D0
70
1
40
0
41
0
66
1
0
VERTEX
8
L1D0
10
322
20
174
0
VERTEX
8
L1D0
10
322
20
194
0
VERTEX
8
L1D0
10
362
20
194
0
VERTEX
8
L1D0
10
362
20
174
0
SEQEND
0
POLYLINE
8
L1D0
70
1
40
0
41
0
66
1
0
VERTEX
8
L1D0
10
366
20
174
0
VERTEX
8
L1D0
10
366
20
194
0
VERTEX
8
L1D0
10
406
20
194
0
VERTEX
8
L1D0
10
406
20
174
0
SEQEND
0
POLYLINE
8
L1D0
70
1
40
0
41
0
66
1
0
VERTEX
8
L1D0
10
190
20
284
0
VERTEX
8
L1D0
10
190
20
304
0
VERTEX
8
L1D0
10
230
20
304
0
VERTEX
8
L1D0
10
230
20
284
0
SEQEND
0
POLYLINE
8
L1D0
70
1
40
0
41
0
66
1
0
VERTEX
8
L1D0
10
190
20
306
0
VERTEX
8
L1D0
10
190
20
326
0
VERTEX
8
L1D0
10
230
20
326
0
VERTEX
8
L1D0
10
230
20
306
0
SEQEND
0
POLYLINE
8
L1D0
70
1
40
0
41
0
66
1
0
VERTEX
8
L1D0
10
190
20
328
0
VERTEX
8
L1D0
10
190
20
348
0
VERTEX
8
L1D0
10
230
20
348
0
VERTEX
8
L1D0
10
230
20
328
0
SEQEND
0
POLYLINE
8
L1D0
70
1
40
0
41
0
66
1
0
VERTEX
8
L1D0
10
190
20
196
0
VERTEX
8
L1D0
10
190
20
216
0
VERTEX
8
L1D0
10
230
20
216
0
VERTEX
8
L1D0
10
230
20
196
0
SEQEND
0
POLYLINE
8
L1D0
70
1
40
0
41
0
66
1
0
VERTEX
8
L1D0
10
234
20
196
0
VERTEX
8
L1D0
10
234
20
216
0
VERTEX
8
L1D0
10
274
20
216
0
VERTEX
8
L1D0
10
274
20
196
0
SEQEND
0
POLYLINE
8
L1D0
70
1
40
0
41
0
66
1
0
VERTEX
8
L1D0
10
234
20
218
0
VERTEX
8
L1D0
10
234
20
238
0
VERTEX
8
L1D0
10
274
20
238
0
VERTEX
8
L1D0
10
274
20
218
0
SEQEND
0
POLYLINE
8
L1D0
70
1
40
0
41
0
66
1
0
VERTEX
8
L1D0
10
234
20
240
0
VERTEX
8
L1D0
10
234
20
260
0
VERTEX
8
L1D0
10
274
20
260
0
VERTEX
8
L1D0
10
274
20
240
0
SEQEND
0
POLYLINE
8
L1D0
70
1
40
0
41
0
66
1
0
VERTEX
8
L1D0
10
234
20
262
0
VERTEX
8
L1D0
10
234
20
282
0
VERTEX
8
L1D0
10
274
20
282
0
VERTEX
8
L1D0
10
274
20
262
0
SEQEND
0
POLYLINE
8
L1D0
70
1
40
0
41
0
66
1
0
VERTEX
8
L1D0
10
234
20
284
0
VERTEX
8
L1D0
10
234
20
304
0
VERTEX
8
L1D0
10
274
20
304
0
VERTEX
8
L1D0
10
274
20
284
0
SEQEND
0
POLYLINE
8
L1D0
70
1
40
0
41
0
66
1
0
VERTEX
8
L1D0
10
234
20
306
0
VERTEX
8
L1D0
10
234
20
326
0
VERTEX
8
L1D0
10
274
20
326
0
VERTEX
8
L1D0
10
274
20
306
0
SEQEND
0
POLYLINE
8
L1D0
70
1
40
0
41
0
66
1
0
VERTEX
8
L1D0
10
234
20
328
0
VERTEX
8
L1D0
10
234
20
348
0
VERTEX
8
L1D0
10
274
20
348
0
VERTEX
8
L1D0
10
274
20
328
0
SEQEND
0
POLYLINE
8
L1D0
70
1
40
0
41
0
66
1
0
VERTEX
8
L1D0
10
190
20
218
0
VERTEX
8
L1D0
10
190
20
238
0
VERTEX
8
L1D0
10
230
20
238
0
VERTEX
8
L1D0
10
230
20
218
0
SEQEND
0
POLYLINE
8
L1D0
70
1
40
0
41
0
66
1
0
VERTEX
8
L1D0
10
278
20
196
0
VERTEX
8
L1D0
10
278
20
216
0
VERTEX
8
L1D0
10
318
20
216
0
VERTEX
8
L1D0
10
318
20
196
0
SEQEND
0
POLYLINE
8
L1D0
70
1
40
0
41
0
66
1
0
VERTEX
8
L1D0
10
278
20
218
0
VERTEX
8
L1D0
10
278
20
238
0
VERTEX
8
L1D0
10
318
20
238
0
VERTEX
8
L1D0
10
318
20
218
0
SEQEND
0
POLYLINE
8
L1D0
70
1
40
0
41
0
66
1
0
VERTEX
8
L1D0
10
278
20
240
0
VERTEX
8
L1D0
10
278
20
260
0
VERTEX
8
L1D0
10
318
20
260
0
VERTEX
8
L1D0
10
318
20
240
0
SEQEND
0
POLYLINE
8
L1D0
70
1
40
0
41
0
66
1
0
VERTEX
8
L1D0
10
278
20
262
0
VERTEX
8
L1D0
10
278
20
282
0
VERTEX
8
L1D0
10
318
20
282
0
VERTEX
8
L1D0
10
318
20
262
0
SEQEND
0
POLYLINE
8
L1D0
70
1
40
0
41
0
66
1
0
VERTEX
8
L1D0
10
278
20
284
0
VERTEX
8
L1D0
10
278
20
304
0
VERTEX
8
L1D0
10
318
20
304
0
VERTEX
8
L1D0
10
318
20
284
0
SEQEND
0
POLYLINE
8
L1D0
70
1
40
0
41
0
66
1
0
VERTEX
8
L1D0
10
278
20
306
0
VERTEX
8
L1D0
10
278
20
326
0
VERTEX
8
L1D0
10
318
20
326
0
VERTEX
8
L1D0
10
318
20
306
0
SEQEND
0
POLYLINE
8
L1D0
70
1
40
0
41
0
66
1
0
VERTEX
8
L1D0
10
278
20
328
0
VERTEX
8
L1D0
10
278
20
348
0
VERTEX
8
L1D0
10
318
20
348
0
VERTEX
8
L1D0
10
318
20
328
0
SEQEND
0
POLYLINE
8
L1D0
70
1
40
0
41
0
66
1
0
VERTEX
8
L1D0
10
190
20
240
0
VERTEX
8
L1D0
10
190
20
260
0
VERTEX
8
L1D0
10
230
20
260
0
VERTEX
8
L1D0
10
230
20
240
0
SEQEND
0
POLYLINE
8
L1D0
70
1
40
0
41
0
66
1
0
VERTEX
8
L1D0
10
322
20
196
0
VERTEX
8
L1D0
10
322
20
216
0
VERTEX
8
L1D0
10
362
20
216
0
VERTEX
8
L1D0
10
362
20
196
0
SEQEND
0
POLYLINE
8
L1D0
70
1
40
0
41
0
66
1
0
VERTEX
8
L1D0
10
322
20
218
0
VERTEX
8
L1D0
10
322
20
238
0
VERTEX
8
L1D0
10
362
20
238
0
VERTEX
8
L1D0
10
362
20
218
0
SEQEND
0
POLYLINE
8
L1D0
70
1
40
0
41
0
66
1
0
VERTEX
8
L1D0
10
322
20
240
0
VERTEX
8
L1D0
10
322
20
260
0
VERTEX
8
L1D0
10
362
20
260
0
VERTEX
8
L1D0
10
362
20
240
0
SEQEND
0
POLYLINE
8
L1D0
70
1
40
0
41
0
66
1
0
VERTEX
8
L1D0
10
322
20
262
0
VERTEX
8
L1D0
10
322
20
282
0
VERTEX
8
L1D0
10
362
20
282
0
VERTEX
8
L1D0
10
362
20
262
0
SEQEND
0
POLYLINE
8
L1D0
70
1
40
0
41
0
66
1
0
VERTEX
8
L1D0
10
322
20
284
0
VERTEX
8
L1D0
10
322
20
304
0
VERTEX
8
L1D0
10
362
20
304
0
VERTEX
8
L1D0
10
362
20
284
0
SEQEND
0
POLYLINE
8
L1D0
70
1
40
0
41
0
66
1
0
VERTEX
8
L1D0
10
322
20
306
0
VERTEX
8
L1D0
10
322
20
326
0
VERTEX
8
L1D0
10
362
20
326
0
VERTEX
8
L1D0
10
362
20
306
0
SEQEND
0
POLYLINE
8
L1D0
70
1
40
0
41
0
66
1
0
VERTEX
8
L1D0
10
322
20
328
0
VERTEX
8
L1D0
10
322
20
348
0
VERTEX
8
L1D0
10
362
20
348
0
VERTEX
8
L1D0
10
362
20
328
0
SEQEND
0
POLYLINE
8
L1D0
70
1
40
0
41
0
66
1
0
VERTEX
8
L1D0
10
190
20
262
0
VERTEX
8
L1D0
10
190
20
282
0
VERTEX
8
L1D0
10
230
20
282
0
VERTEX
8
L1D0
10
230
20
262
0
SEQEND
0
POLYLINE
8
L1D0
70
1
40
0
41
0
66
1
0
VERTEX
8
L1D0
10
366
20
196
0
VERTEX
8
L1D0
10
366
20
216
0
VERTEX
8
L1D0
10
406
20
216
0
VERTEX
8
L1D0
10
406
20
196
0
SEQEND
0
POLYLINE
8
L1D0
70
1
40
0
41
0
66
1
0
VERTEX
8
L1D0
10
366
20
218
0
VERTEX
8
L1D0
10
366
20
238
0
VERTEX
8
L1D0
10
406
20
238
0
VERTEX
8
L1D0
10
406
20
218
0
SEQEND
0
POLYLINE
8
L1D0
70
1
40
0
41
0
66
1
0
VERTEX
8
L1D0
10
366
20
240
0
VERTEX
8
L1D0
10
366
20
260
0
VERTEX
8
L1D0
10
406
20
260
0
VERTEX
8
L1D0
10
406
20
240
0
SEQEND
0
POLYLINE
8
L1D0
70
1
40
0
41
0
66
1
0
VERTEX
8
L1D0
10
366
20
262
0
VERTEX
8
L1D0
10
366
20
282
0
VERTEX
8
L1D0
10
406
20
282
0
VERTEX
8
L1D0
10
406
20
262
0
SEQEND
0
POLYLINE
8
L1D0
70
1
40
0
41
0
66
1
0
VERTEX
8
L1D0
10
366
20
284
0
VERTEX
8
L1D0
10
366
20
304
0
VERTEX
8
L1D0
10
406
20
304
0
VERTEX
8
L1D0
10
406
20
284
0
SEQEND
0
POLYLINE
8
L1D0
70
1
40
0
41
0
66
1
0
VERTEX
8
L1D0
10
366
20
306
0
VERTEX
8
L1D0
10
366
20
326
0
VERTEX
8
L1D0
10
406
20
326
0
VERTEX
8
L1D0
10
406
20
306
0
SEQEND
0
POLYLINE
8
L1D0
70
1
40
0
41
0
66
1
0
VERTEX
8
L1D0
10
366
20
328
0
VERTEX
8
L1D0
10
366
20
348
0
VERTEX
8
L1D0
10
406
20
348
0
VERTEX
8
L1D0
10
406
20
328
0
SEQEND
0
POLYLINE
8
L1D0
70
1
40
0
41
0
66
1
0
VERTEX
8
L1D0
10
14
20
218
0
VERTEX
8
L1D0
10
14
20
238
0
VERTEX
8
L1D0
10
54
20
238
0
VERTEX
8
L1D0
10
54
20
218
0
SEQEND
0
POLYLINE
8
L1D0
70
1
40
0
41
0
66
1
0
VERTEX
8
L1D0
10
14
20
240
0
VERTEX
8
L1D0
10
14
20
260
0
VERTEX
8
L1D0
10
54
20
260
0
VERTEX
8
L1D0
10
54
20
240
0
SEQEND
0
POLYLINE
8
L1D0
70
1
40
0
41
0
66
1
0
VERTEX
8
L1D0
10
14
20
262
0
VERTEX
8
L1D0
10
14
20
282
0
VERTEX
8
L1D0
10
54
20
282
0
VERTEX
8
L1D0
10
54
20
262
0
SEQEND
0
POLYLINE
8
L1D0
70
1
40
0
41
0
66
1
0
VERTEX
8
L1D0
10
14
20
284
0
VERTEX
8
L1D0
10
14
20
304
0
VERTEX
8
L1D0
10
54
20
304
0
VERTEX
8
L1D0
10
54
20
284
0
SEQEND
0
POLYLINE
8
L1D0
70
1
40
0
41
0
66
1
0
VERTEX
8
L1D0
10
14
20
306
0
VERTEX
8
L1D0
10
14
20
326
0
VERTEX
8
L1D0
10
54
20
326
0
VERTEX
8
L1D0
10
54
20
306
0
SEQEND
0
POLYLINE
8
L1D0
70
1
40
0
41
0
66
1
0
VERTEX
8
L1D0
10
14
20
328
0
VERTEX
8
L1D0
10
14
20
348
0
VERTEX
8
L1D0
10
54
20
348
0
VERTEX
8
L1D0
10
54
20
328
0
SEQEND
0
POLYLINE
8
L1D0
70
1
40
0
41
0
66
1
0
VERTEX
8
L1D0
10
-30
20
218
0
VERTEX
8
L1D0
10
-30
20
238
0
VERTEX
8
L1D0
10
10
20
238
0
VERTEX
8
L1D0
10
10
20
218
0
SEQEND
0
POLYLINE
8
L1D0
70
1
40
0
41
0
66
1
0
VERTEX
8
L1D0
10
58
20
196
0
VERTEX
8
L1D0
10
58
20
216
0
VERTEX
8
L1D0
10
98
20
216
0
VERTEX
8
L1D0
10
98
20
196
0
SEQEND
0
POLYLINE
8
L1D0
70
1
40
0
41
0
66
1
0
VERTEX
8
L1D0
10
58
20
218
0
VERTEX
8
L1D0
10
58
20
238
0
VERTEX
8
L1D0
10
98
20
238
0
VERTEX
8
L1D0
10
98
20
218
0
SEQEND
0
POLYLINE
8
L1D0
70
1
40
0
41
0
66
1
0
VERTEX
8
L1D0
10
58
20
240
0
VERTEX
8
L1D0
10
58
20
260
0
VERTEX
8
L1D0
10
98
20
260
0
VERTEX
8
L1D0
10
98
20
240
0
SEQEND
0
POLYLINE
8
L1D0
70
1
40
0
41
0
66
1
0
VERTEX
8
L1D0
10
58
20
262
0
VERTEX
8
L1D0
10
58
20
282
0
VERTEX
8
L1D0
10
98
20
282
0
VERTEX
8
L1D0
10
98
20
262
0
SEQEND
0
POLYLINE
8
L1D0
70
1
40
0
41
0
66
1
0
VERTEX
8
L1D0
10
58
20
284
0
VERTEX
8
L1D0
10
58
20
304
0
VERTEX
8
L1D0
10
98
20
304
0
VERTEX
8
L1D0
10
98
20
284
0
SEQEND
0
POLYLINE
8
L1D0
70
1
40
0
41
0
66
1
0
VERTEX
8
L1D0
10
58
20
306
0
VERTEX
8
L1D0
10
58
20
326
0
VERTEX
8
L1D0
10
98
20
326
0
VERTEX
8
L1D0
10
98
20
306
0
SEQEND
0
POLYLINE
8
L1D0
70
1
40
0
41
0
66
1
0
VERTEX
8
L1D0
10
58
20
328
0
VERTEX
8
L1D0
10
58
20
348
0
VERTEX
8
L1D0
10
98
20
348
0
VERTEX
8
L1D0
10
98
20
328
0
SEQEND
0
POLYLINE
8
L1D0
70
1
40
0
41
0
66
1
0
VERTEX
8
L1D0
10
-30
20
240
0
VERTEX
8
L1D0
10
-30
20
260
0
VERTEX
8
L1D0
10
10
20
260
0
VERTEX
8
L1D0
10
10
20
240
0
SEQEND
0
POLYLINE
8
L1D0
70
1
40
0
41
0
66
1
0
VERTEX
8
L1D0
10
102
20
196
0
VERTEX
8
L1D0
10
102
20
216
0
VERTEX
8
L1D0
10
142
20
216
0
VERTEX
8
L1D0
10
142
20
196
0
SEQEND
0
POLYLINE
8
L1D0
70
1
40
0
41
0
66
1
0
VERTEX
8
L1D0
10
102
20
218
0
VERTEX
8
L1D0
10
102
20
238
0
VERTEX
8
L1D0
10
142
20
238
0
VERTEX
8
L1D0
10
142
20
218
0
SEQEND
0
POLYLINE
8
L1D0
70
1
40
0
41
0
66
1
0
VERTEX
8
L1D0
10
102
20
240
0
VERTEX
8
L1D0
10
102
20
260
0
VERTEX
8
L1D0
10
142
20
260
0
VERTEX
8
L1D0
10
142
20
240
0
SEQEND
0
POLYLINE
8
L1D0
70
1
40
0
41
0
66
1
0
VERTEX
8
L1D0
10
102
20
262
0
VERTEX
8
L1D0
10
102
20
282
0
VERTEX
8
L1D0
10
142
20
282
0
VERTEX
8
L1D0
10
142
20
262
0
SEQEND
0
POLYLINE
8
L1D0
70
1
40
0
41
0
66
1
0
VERTEX
8
L1D0
10
102
20
284
0
VERTEX
8
L1D0
10
102
20
304
0
VERTEX
8
L1D0
10
142
20
304
0
VERTEX
8
L1D0
10
142
20
284
0
SEQEND
0
POLYLINE
8
L1D0
70
1
40
0
41
0
66
1
0
VERTEX
8
L1D0
10
102
20
306
0
VERTEX
8
L1D0
10
102
20
326
0
VERTEX
8
L1D0
10
142
20
326
0
VERTEX
8
L1D0
10
142
20
306
0
SEQEND
0
POLYLINE
8
L1D0
70
1
40
0
41
0
66
1
0
VERTEX
8
L1D0
10
102
20
328
0
VERTEX
8
L1D0
10
102
20
348
0
VERTEX
8
L1D0
10
142
20
348
0
VERTEX
8
L1D0
10
142
20
328
0
SEQEND
0
POLYLINE
8
L1D0
70
1
40
0
41
0
66
1
0
VERTEX
8
L1D0
10
-30
20
262
0
VERTEX
8
L1D0
10
-30
20
282
0
VERTEX
8
L1D0
10
10
20
282
0
VERTEX
8
L1D0
10
10
20
262
0
SEQEND
0
POLYLINE
8
L1D0
70
1
40
0
41
0
66
1
0
VERTEX
8
L1D0
10
146
20
196
0
VERTEX
8
L1D0
10
146
20
216
0
VERTEX
8
L1D0
10
186
20
216
0
VERTEX
8
L1D0
10
186
20
196
0
SEQEND
0
POLYLINE
8
L1D0
70
1
40
0
41
0
66
1
0
VERTEX
8
L1D0
10
146
20
218
0
VERTEX
8
L1D0
10
146
20
238
0
VERTEX
8
L1D0
10
186
20
238
0
VERTEX
8
L1D0
10
186
20
218
0
SEQEND
0
POLYLINE
8
L1D0
70
1
40
0
41
0
66
1
0
VERTEX
8
L1D0
10
146
20
240
0
VERTEX
8
L1D0
10
146
20
260
0
VERTEX
8
L1D0
10
186
20
260
0
VERTEX
8
L1D0
10
186
20
240
0
SEQEND
0
POLYLINE
8
L1D0
70
1
40
0
41
0
66
1
0
VERTEX
8
L1D0
10
146
20
262
0
VERTEX
8
L1D0
10
146
20
282
0
VERTEX
8
L1D0
10
186
20
282
0
VERTEX
8
L1D0
10
186
20
262
0
SEQEND
0
POLYLINE
8
L1D0
70
1
40
0
41
0
66
1
0
VERTEX
8
L1D0
10
146
20
284
0
VERTEX
8
L1D0
10
146
20
304
0
VERTEX
8
L1D0
10
186
20
304
0
VERTEX
8
L1D0
10
186
20
284
0
SEQEND
0
POLYLINE
8
L1D0
70
1
40
0
41
0
66
1
0
VERTEX
8
L1D0
10
146
20
306
0
VERTEX
8
L1D0
10
146
20
326
0
VERTEX
8
L1D0
10
186
20
326
0
VERTEX
8
L1D0
10
186
20
306
0
SEQEND
0
POLYLINE
8
L1D0
70
1
40
0
41
0
66
1
0
VERTEX
8
L1D0
10
146
20
328
0
VERTEX
8
L1D0
10
146
20
348
0
VERTEX
8
L1D0
10
186
20
348
0
VERTEX
8
L1D0
10
186
20
328
0
SEQEND
0
POLYLINE
8
L1D0
70
1
40
0
41
0
66
1
0
VERTEX
8
L1D0
10
-30
20
284
0
VERTEX
8
L1D0
10
-30
20
304
0
VERTEX
8
L1D0
10
10
20
304
0
VERTEX
8
L1D0
10
10
20
284
0
SEQEND
0
POLYLINE
8
L1D0
70
1
40
0
41
0
66
1
0
VERTEX
8
L1D0
10
-30
20
306
0
VERTEX
8
L1D0
10
-30
20
326
0
VERTEX
8
L1D0
10
10
20
326
0
VERTEX
8
L1D0
10
10
20
306
0
SEQEND
0
POLYLINE
8
L1D0
70
1
40
0
41
0
66
1
0
VERTEX
8
L1D0
10
-30
20
328
0
VERTEX
8
L1D0
10
-30
20
348
0
VERTEX
8
L1D0
10
10
20
348
0
VERTEX
8
L1D0
10
10
20
328
0
SEQEND
0
POLYLINE
8
L1D0
70
1
40
0
41
0
66
1
0
VERTEX
8
L1D0
10
-30
20
196
0
VERTEX
8
L1D0
10
-30
20
216
0
VERTEX
8
L1D0
10
10
20
216
0
VERTEX
8
L1D0
10
10
20
196
0
SEQEND
0
POLYLINE
8
L1D0
70
1
40
0
41
0
66
1
0
VERTEX
8
L1D0
10
14
20
196
0
VERTEX
8
L1D0
10
14
20
216
0
VERTEX
8
L1D0
10
54
20
216
0
VERTEX
8
L1D0
10
54
20
196
0
SEQEND
0
POLYLINE
8
L1D0
70
1
40
0
41
0
66
1
0
VERTEX
8
L1D0
10
102
20
20
0
VERTEX
8
L1D0
10
102
20
40
0
VERTEX
8
L1D0
10
142
20
40
0
VERTEX
8
L1D0
10
142
20
20
0
SEQEND
0
POLYLINE
8
L1D0
70
1
40
0
41
0
66
1
0
VERTEX
8
L1D0
10
102
20
42
0
VERTEX
8
L1D0
10
102
20
62
0
VERTEX
8
L1D0
10
142
20
62
0
VERTEX
8
L1D0
10
142
20
42
0
SEQEND
0
POLYLINE
8
L1D0
70
1
40
0
41
0
66
1
0
VERTEX
8
L1D0
10
102
20
64
0
VERTEX
8
L1D0
10
102
20
84
0
VERTEX
8
L1D0
10
142
20
84
0
VERTEX
8
L1D0
10
142
20
64
0
SEQEND
0
POLYLINE
8
L1D0
70
1
40
0
41
0
66
1
0
VERTEX
8
L1D0
10
102
20
86
0
VERTEX
8
L1D0
10
102
20
106
0
VERTEX
8
L1D0
10
142
20
106
0
VERTEX
8
L1D0
10
142
20
86
0
SEQEND
0
POLYLINE
8
L1D0
70
1
40
0
41
0
66
1
0
VERTEX
8
L1D0
10
102
20
108
0
VERTEX
8
L1D0
10
102
20
128
0
VERTEX
8
L1D0
10
142
20
128
0
VERTEX
8
L1D0
10
142
20
108
0
SEQEND
0
POLYLINE
8
L1D0
70
1
40
0
41
0
66
1
0
VERTEX
8
L1D0
10
102
20
130
0
VERTEX
8
L1D0
10
102
20
150
0
VERTEX
8
L1D0
10
142
20
150
0
VERTEX
8
L1D0
10
142
20
130
0
SEQEND
0
POLYLINE
8
L1D0
70
1
40
0
41
0
66
1
0
VERTEX
8
L1D0
10
102
20
152
0
VERTEX
8
L1D0
10
102
20
172
0
VERTEX
8
L1D0
10
142
20
172
0
VERTEX
8
L1D0
10
142
20
152
0
SEQEND
0
POLYLINE
8
L1D0
70
1
40
0
41
0
66
1
0
VERTEX
8
L1D0
10
-30
20
86
0
VERTEX
8
L1D0
10
-30
20
106
0
VERTEX
8
L1D0
10
10
20
106
0
VERTEX
8
L1D0
10
10
20
86
0
SEQEND
0
POLYLINE
8
L1D0
70
1
40
0
41
0
66
1
0
VERTEX
8
L1D0
10
-30
20
108
0
VERTEX
8
L1D0
10
-30
20
128
0
VERTEX
8
L1D0
10
10
20
128
0
VERTEX
8
L1D0
10
10
20
108
0
SEQEND
0
POLYLINE
8
L1D0
70
1
40
0
41
0
66
1
0
VERTEX
8
L1D0
10
-30
20
130
0
VERTEX
8
L1D0
10
-30
20
150
0
VERTEX
8
L1D0
10
10
20
150
0
VERTEX
8
L1D0
10
10
20
130
0
SEQEND
0
POLYLINE
8
L1D0
70
1
40
0
41
0
66
1
0
VERTEX
8
L1D0
10
-30
20
152
0
VERTEX
8
L1D0
10
-30
20
172
0
VERTEX
8
L1D0
10
10
20
172
0
VERTEX
8
L1D0
10
10
20
152
0
SEQEND
0
POLYLINE
8
L1D0
70
1
40
0
41
0
66
1
0
VERTEX
8
L1D0
10
-30
20
20
0
VERTEX
8
L1D0
10
-30
20
40
0
VERTEX
8
L1D0
10
10
20
40
0
VERTEX
8
L1D0
10
10
20
20
0
SEQEND
0
POLYLINE
8
L1D0
70
1
40
0
41
0
66
1
0
VERTEX
8
L1D0
10
14
20
20
0
VERTEX
8
L1D0
10
14
20
40
0
VERTEX
8
L1D0
10
54
20
40
0
VERTEX
8
L1D0
10
54
20
20
0
SEQEND
0
POLYLINE
8
L1D0
70
1
40
0
41
0
66
1
0
VERTEX
8
L1D0
10
58
20
20
0
VERTEX
8
L1D0
10
58
20
40
0
VERTEX
8
L1D0
10
98
20
40
0
VERTEX
8
L1D0
10
98
20
20
0
SEQEND
0
POLYLINE
8
L1D0
70
1
40
0
41
0
66
1
0
VERTEX
8
L1D0
10
58
20
42
0
VERTEX
8
L1D0
10
58
20
62
0
VERTEX
8
L1D0
10
98
20
62
0
VERTEX
8
L1D0
10
98
20
42
0
SEQEND
0
POLYLINE
8
L1D0
70
1
40
0
41
0
66
1
0
VERTEX
8
L1D0
10
146
20
20
0
VERTEX
8
L1D0
10
146
20
40
0
VERTEX
8
L1D0
10
186
20
40
0
VERTEX
8
L1D0
10
186
20
20
0
SEQEND
0
POLYLINE
8
L1D0
70
1
40
0
41
0
66
1
0
VERTEX
8
L1D0
10
146
20
42
0
VERTEX
8
L1D0
10
146
20
62
0
VERTEX
8
L1D0
10
186
20
62
0
VERTEX
8
L1D0
10
186
20
42
0
SEQEND
0
POLYLINE
8
L1D0
70
1
40
0
41
0
66
1
0
VERTEX
8
L1D0
10
146
20
64
0
VERTEX
8
L1D0
10
146
20
84
0
VERTEX
8
L1D0
10
186
20
84
0
VERTEX
8
L1D0
10
186
20
64
0
SEQEND
0
POLYLINE
8
L1D0
70
1
40
0
41
0
66
1
0
VERTEX
8
L1D0
10
146
20
86
0
VERTEX
8
L1D0
10
146
20
106
0
VERTEX
8
L1D0
10
186
20
106
0
VERTEX
8
L1D0
10
186
20
86
0
SEQEND
0
POLYLINE
8
L1D0
70
1
40
0
41
0
66
1
0
VERTEX
8
L1D0
10
146
20
108
0
VERTEX
8
L1D0
10
146
20
128
0
VERTEX
8
L1D0
10
186
20
128
0
VERTEX
8
L1D0
10
186
20
108
0
SEQEND
0
POLYLINE
8
L1D0
70
1
40
0
41
0
66
1
0
VERTEX
8
L1D0
10
146
20
130
0
VERTEX
8
L1D0
10
146
20
150
0
VERTEX
8
L1D0
10
186
20
150
0
VERTEX
8
L1D0
10
186
20
130
0
SEQEND
0
POLYLINE
8
L1D0
70
1
40
0
41
0
66
1
0
VERTEX
8
L1D0
10
146
20
152
0
VERTEX
8
L1D0
10
146
20
172
0
VERTEX
8
L1D0
10
186
20
172
0
VERTEX
8
L1D0
10
186
20
152
0
SEQEND
0
POLYLINE
8
L1D0
70
1
40
0
41
0
66
1
0
VERTEX
8
L1D0
10
58
20
64
0
VERTEX
8
L1D0
10
58
20
84
0
VERTEX
8
L1D0
10
98
20
84
0
VERTEX
8
L1D0
10
98
20
64
0
SEQEND
0
POLYLINE
8
L1D0
70
1
40
0
41
0
66
1
0
VERTEX
8
L1D0
10
58
20
86
0
VERTEX
8
L1D0
10
58
20
106
0
VERTEX
8
L1D0
10
98
20
106
0
VERTEX
8
L1D0
10
98
20
86
0
SEQEND
0
POLYLINE
8
L1D0
70
1
40
0
41
0
66
1
0
VERTEX
8
L1D0
10
58
20
108
0
VERTEX
8
L1D0
10
58
20
128
0
VERTEX
8
L1D0
10
98
20
128
0
VERTEX
8
L1D0
10
98
20
108
0
SEQEND
0
POLYLINE
8
L1D0
70
1
40
0
41
0
66
1
0
VERTEX
8
L1D0
10
58
20
130
0
VERTEX
8
L1D0
10
58
20
150
0
VERTEX
8
L1D0
10
98
20
150
0
VERTEX
8
L1D0
10
98
20
130
0
SEQEND
0
POLYLINE
8
L1D0
70
1
40
0
41
0
66
1
0
VERTEX
8
L1D0
10
58
20
152
0
VERTEX
8
L1D0
10
58
20
172
0
VERTEX
8
L1D0
10
98
20
172
0
VERTEX
8
L1D0
10
98
20
152
0
SEQEND
0
POLYLINE
8
L1D0
70
1
40
0
41
0
66
1
0
VERTEX
8
L1D0
10
14
20
42
0
VERTEX
8
L1D0
10
14
20
62
0
VERTEX
8
L1D0
10
54
20
62
0
VERTEX
8
L1D0
10
54
20
42
0
SEQEND
0
POLYLINE
8
L1D0
70
1
40
0
41
0
66
1
0
VERTEX
8
L1D0
10
14
20
64
0
VERTEX
8
L1D0
10
14
20
84
0
VERTEX
8
L1D0
10
54
20
84
0
VERTEX
8
L1D0
10
54
20
64
0
SEQEND
0
POLYLINE
8
L1D0
70
1
40
0
41
0
66
1
0
VERTEX
8
L1D0
10
14
20
86
0
VERTEX
8
L1D0
10
14
20
106
0
VERTEX
8
L1D0
10
54
20
106
0
VERTEX
8
L1D0
10
54
20
86
0
SEQEND
0
POLYLINE
8
L1D0
70
1
40
0
41
0
66
1
0
VERTEX
8
L1D0
10
14
20
108
0
VERTEX
8
L1D0
10
14
20
128
0
VERTEX
8
L1D0
10
54
20
128
0
VERTEX
8
L1D0
10
54
20
108
0
SEQEND
0
POLYLINE
8
L1D0
70
1
40
0
41
0
66
1
0
VERTEX
8
L1D0
10
14
20
130
0
VERTEX
8
L1D0
10
14
20
150
0
VERTEX
8
L1D0
10
54
20
150
0
VERTEX
8
L1D0
10
54
20
130
0
SEQEND
0
POLYLINE
8
L1D0
70
1
40
0
41
0
66
1
0
VERTEX
8
L1D0
10
14
20
152
0
VERTEX
8
L1D0
10
14
20
172
0
VERTEX
8
L1D0
10
54
20
172
0
VERTEX
8
L1D0
10
54
20
152
0
SEQEND
0
POLYLINE
8
L1D0
70
1
40
0
41
0
66
1
0
VERTEX
8
L1D0
10
-30
20
42
0
VERTEX
8
L1D0
10
-30
20
62
0
VERTEX
8
L1D0
10
10
20
62
0
VERTEX
8
L1D0
10
10
20
42
0
SEQEND
0
POLYLINE
8
L1D0
70
1
40
0
41
0
66
1
0
VERTEX
8
L1D0
10
-30
20
64
0
VERTEX
8
L1D0
10
-30
20
84
0
VERTEX
8
L1D0
10
10
20
84
0
VERTEX
8
L1D0
10
10
20
64
0
SEQEND
0
POLYLINE
8
L1D0
70
1
40
0
41
0
66
1
0
VERTEX
8
L1D0
10
234
20
108
0
VERTEX
8
L1D0
10
234
20
128
0
VERTEX
8
L1D0
10
274
20
128
0
VERTEX
8
L1D0
10
274
20
108
0
SEQEND
0
POLYLINE
8
L1D0
70
1
40
0
41
0
66
1
0
VERTEX
8
L1D0
10
234
20
130
0
VERTEX
8
L1D0
10
234
20
150
0
VERTEX
8
L1D0
10
274
20
150
0
VERTEX
8
L1D0
10
274
20
130
0
SEQEND
0
POLYLINE
8
L1D0
70
1
40
0
41
0
66
1
0
VERTEX
8
L1D0
10
234
20
152
0
VERTEX
8
L1D0
10
234
20
172
0
VERTEX
8
L1D0
10
274
20
172
0
VERTEX
8
L1D0
10
274
20
152
0
SEQEND
0
POLYLINE
8
L1D0
70
1
40
0
41
0
66
1
0
VERTEX
8
L1D0
10
190
20
42
0
VERTEX
8
L1D0
10
190
20
62
0
VERTEX
8
L1D0
10
230
20
62
0
VERTEX
8
L1D0
10
230
20
42
0
SEQEND
0
POLYLINE
8
L1D0
70
1
40
0
41
0
66
1
0
VERTEX
8
L1D0
10
190
20
64
0
VERTEX
8
L1D0
10
190
20
84
0
VERTEX
8
L1D0
10
230
20
84
0
VERTEX
8
L1D0
10
230
20
64
0
SEQEND
0
POLYLINE
8
L1D0
70
1
40
0
41
0
66
1
0
VERTEX
8
L1D0
10
322
20
20
0
VERTEX
8
L1D0
10
322
20
40
0
VERTEX
8
L1D0
10
362
20
40
0
VERTEX
8
L1D0
10
362
20
20
0
SEQEND
0
POLYLINE
8
L1D0
70
1
40
0
41
0
66
1
0
VERTEX
8
L1D0
10
322
20
42
0
VERTEX
8
L1D0
10
322
20
62
0
VERTEX
8
L1D0
10
362
20
62
0
VERTEX
8
L1D0
10
362
20
42
0
SEQEND
0
POLYLINE
8
L1D0
70
1
40
0
41
0
66
1
0
VERTEX
8
L1D0
10
322
20
64
0
VERTEX
8
L1D0
10
322
20
84
0
VERTEX
8
L1D0
10
362
20
84
0
VERTEX
8
L1D0
10
362
20
64
0
SEQEND
0
POLYLINE
8
L1D0
70
1
40
0
41
0
66
1
0
VERTEX
8
L1D0
10
322
20
86
0
VERTEX
8
L1D0
10
322
20
106
0
VERTEX
8
L1D0
10
362
20
106
0
VERTEX
8
L1D0
10
362
20
86
0
SEQEND
0
POLYLINE
8
L1D0
70
1
40
0
41
0
66
1
0
VERTEX
8
L1D0
10
322
20
108
0
VERTEX
8
L1D0
10
322
20
128
0
VERTEX
8
L1D0
10
362
20
128
0
VERTEX
8
L1D0
10
362
20
108
0
SEQEND
0
POLYLINE
8
L1D0
70
1
40
0
41
0
66
1
0
VERTEX
8
L1D0
10
322
20
130
0
VERTEX
8
L1D0
10
322
20
150
0
VERTEX
8
L1D0
10
362
20
150
0
VERTEX
8
L1D0
10
362
20
130
0
SEQEND
0
POLYLINE
8
L1D0
70
1
40
0
41
0
66
1
0
VERTEX
8
L1D0
10
322
20
152
0
VERTEX
8
L1D0
10
322
20
172
0
VERTEX
8
L1D0
10
362
20
172
0
VERTEX
8
L1D0
10
362
20
152
0
SEQEND
0
POLYLINE
8
L1D0
70
1
40
0
41
0
66
1
0
VERTEX
8
L1D0
10
190
20
86
0
VERTEX
8
L1D0
10
190
20
106
0
VERTEX
8
L1D0
10
230
20
106
0
VERTEX
8
L1D0
10
230
20
86
0
SEQEND
0
POLYLINE
8
L1D0
70
1
40
0
41
0
66
1
0
VERTEX
8
L1D0
10
190
20
108
0
VERTEX
8
L1D0
10
190
20
128
0
VERTEX
8
L1D0
10
230
20
128
0
VERTEX
8
L1D0
10
230
20
108
0
SEQEND
0
POLYLINE
8
L1D0
70
1
40
0
41
0
66
1
0
VERTEX
8
L1D0
10
190
20
130
0
VERTEX
8
L1D0
10
190
20
150
0
VERTEX
8
L1D0
10
230
20
150
0
VERTEX
8
L1D0
10
230
20
130
0
SEQEND
0
POLYLINE
8
L1D0
70
1
40
0
41
0
66
1
0
VERTEX
8
L1D0
10
190
20
152
0
VERTEX
8
L1D0
10
190
20
172
0
VERTEX
8
L1D0
10
230
20
172
0
VERTEX
8
L1D0
10
230
20
152
0
SEQEND
0
POLYLINE
8
L1D0
70
1
40
0
41
0
66
1
0
VERTEX
8
L1D0
10
190
20
20
0
VERTEX
8
L1D0
10
190
20
40
0
VERTEX
8
L1D0
10
230
20
40
0
VERTEX
8
L1D0
10
230
20
20
0
SEQEND
0
POLYLINE
8
L1D0
70
1
40
0
41
0
66
1
0
VERTEX
8
L1D0
10
234
20
20
0
VERTEX
8
L1D0
10
234
20
40
0
VERTEX
8
L1D0
10
274
20
40
0
VERTEX
8
L1D0
10
274
20
20
0
SEQEND
0
POLYLINE
8
L1D0
70
1
40
0
41
0
66
1
0
VERTEX
8
L1D0
10
278
20
20
0
VERTEX
8
L1D0
10
278
20
40
0
VERTEX
8
L1D0
10
318
20
40
0
VERTEX
8
L1D0
10
318
20
20
0
SEQEND
0
POLYLINE
8
L1D0
70
1
40
0
41
0
66
1
0
VERTEX
8
L1D0
10
278
20
42
0
VERTEX
8
L1D0
10
278
20
62
0
VERTEX
8
L1D0
10
318
20
62
0
VERTEX
8
L1D0
10
318
20
42
0
SEQEND
0
POLYLINE
8
L1D0
70
1
40
0
41
0
66
1
0
VERTEX
8
L1D0
10
366
20
20
0
VERTEX
8
L1D0
10
366
20
40
0
VERTEX
8
L1D0
10
406
20
40
0
VERTEX
8
L1D0
10
406
20
20
0
SEQEND
0
POLYLINE
8
L1D0
70
1
40
0
41
0
66
1
0
VERTEX
8
L1D0
10
366
20
42
0
VERTEX
8
L1D0
10
366
20
62
0
VERTEX
8
L1D0
10
406
20
62
0
VERTEX
8
L1D0
10
406
20
42
0
SEQEND
0
POLYLINE
8
L1D0
70
1
40
0
41
0
66
1
0
VERTEX
8
L1D0
10
366
20
64
0
VERTEX
8
L1D0
10
366
20
84
0
VERTEX
8
L1D0
10
406
20
84
0
VERTEX
8
L1D0
10
406
20
64
0
SEQEND
0
POLYLINE
8
L1D0
70
1
40
0
41
0
66
1
0
VERTEX
8
L1D0
10
366
20
86
0
VERTEX
8
L1D0
10
366
20
106
0
VERTEX
8
L1D0
10
406
20
106
0
VERTEX
8
L1D0
10
406
20
86
0
SEQEND
0
POLYLINE
8
L1D0
70
1
40
0
41
0
66
1
0
VERTEX
8
L1D0
10
366
20
108
0
VERTEX
8
L1D0
10
366
20
128
0
VERTEX
8
L1D0
10
406
20
128
0
VERTEX
8
L1D0
10
406
20
108
0
SEQEND
0
POLYLINE
8
L1D0
70
1
40
0
41
0
66
1
0
VERTEX
8
L1D0
10
366
20
130
0
VERTEX
8
L1D0
10
366
20
150
0
VERTEX
8
L1D0
10
406
20
150
0
VERTEX
8
L1D0
10
406
20
130
0
SEQEND
0
POLYLINE
8
L1D0
70
1
40
0
41
0
66
1
0
VERTEX
8
L1D0
10
366
20
152
0
VERTEX
8
L1D0
10
366
20
172
0
VERTEX
8
L1D0
10
406
20
172
0
VERTEX
8
L1D0
10
406
20
152
0
SEQEND
0
POLYLINE
8
L1D0
70
1
40
0
41
0
66
1
0
VERTEX
8
L1D0
10
278
20
64
0
VERTEX
8
L1D0
10
278
20
84
0
VERTEX
8
L1D0
10
318
20
84
0
VERTEX
8
L1D0
10
318
20
64
0
SEQEND
0
POLYLINE
8
L1D0
70
1
40
0
41
0
66
1
0
VERTEX
8
L1D0
10
278
20
86
0
VERTEX
8
L1D0
10
278
20
106
0
VERTEX
8
L1D0
10
318
20
106
0
VERTEX
8
L1D0
10
318
20
86
0
SEQEND
0
POLYLINE
8
L1D0
70
1
40
0
41
0
66
1
0
VERTEX
8
L1D0
10
278
20
108
0
VERTEX
8
L1D0
10
278
20
128
0
VERTEX
8
L1D0
10
318
20
128
0
VERTEX
8
L1D0
10
318
20
108
0
SEQEND
0
POLYLINE
8
L1D0
70
1
40
0
41
0
66
1
0
VERTEX
8
L1D0
10
278
20
130
0
VERTEX
8
L1D0
10
278
20
150
0
VERTEX
8
L1D0
10
318
20
150
0
VERTEX
8
L1D0
10
318
20
130
0
SEQEND
0
POLYLINE
8
L1D0
70
1
40
0
41
0
66
1
0
VERTEX
8
L1D0
10
278
20
152
0
VERTEX
8
L1D0
10
278
20
172
0
VERTEX
8
L1D0
10
318
20
172
0
VERTEX
8
L1D0
10
318
20
152
0
SEQEND
0
POLYLINE
8
L1D0
70
1
40
0
41
0
66
1
0
VERTEX
8
L1D0
10
234
20
42
0
VERTEX
8
L1D0
10
234
20
62
0
VERTEX
8
L1D0
10
274
20
62
0
VERTEX
8
L1D0
10
274
20
42
0
SEQEND
0
POLYLINE
8
L1D0
70
1
40
0
41
0
66
1
0
VERTEX
8
L1D0
10
234
20
64
0
VERTEX
8
L1D0
10
234
20
84
0
VERTEX
8
L1D0
10
274
20
84
0
VERTEX
8
L1D0
10
274
20
64
0
SEQEND
0
POLYLINE
8
L1D0
70
1
40
0
41
0
66
1
0
VERTEX
8
L1D0
10
234
20
86
0
VERTEX
8
L1D0
10
234
20
106
0
VERTEX
8
L1D0
10
274
20
106
0
VERTEX
8
L1D0
10
274
20
86
0
SEQEND
0
ENDSEC
0
EOF
